<?xml version="1.0" standalone="no"?>
<!DOCTYPE svg PUBLIC "-//W3C//DTD SVG 20010904//EN"
 "http://www.w3.org/TR/2001/REC-SVG-20010904/DTD/svg10.dtd">
<svg version="1.0" xmlns="http://www.w3.org/2000/svg"
 width="8.000000pt" height="12.000000pt" viewBox="0 0 8.000000 12.000000"
 preserveAspectRatio="xMidYMid meet">
<metadata>
Created by potrace 1.16, written by Peter Selinger 2001-2019
</metadata>
<g transform="translate(0.000000,12.000000) scale(0.000625,-0.000938)"
fill="#000000" stroke="none">
<path d="M6275 8455 c-3 -11 -11 -27 -16 -35 -5 -8 -13 -24 -18 -35 -13 -28
-80 -90 -121 -110 -27 -14 -49 -16 -108 -11 -40 3 -82 11 -93 17 -30 16 -36 3
-11 -24 24 -26 62 -135 62 -178 l0 -29 308 2 307 3 6 50 c7 57 29 115 59 152
26 33 20 39 -19 19 -39 -21 -133 -21 -174 0 -62 32 -118 86 -146 142 -24 47
-30 54 -36 37z"/>
<path d="M4938 8123 c13 -3 22 -10 19 -16 -3 -8 7 -12 27 -13 46 -2 145 -20
153 -27 3 -4 -35 -7 -85 -7 -50 0 -94 -4 -97 -10 -3 -5 -12 -10 -18 -9 -9 0
-9 2 1 6 19 8 14 25 -6 19 -12 -4 -28 3 -45 18 -15 14 -27 23 -27 20 0 -5 146
-182 160 -194 3 -3 28 -32 55 -65 28 -33 55 -65 60 -71 24 -26 116 -133 150
-174 41 -50 115 -137 130 -154 14 -15 177 -205 206 -240 13 -16 29 -34 34 -40
6 -6 62 -72 125 -146 63 -74 121 -142 130 -150 8 -8 33 -37 55 -65 22 -27 47
-57 55 -66 29 -30 76 -85 150 -174 41 -49 77 -92 80 -95 3 -3 39 -43 80 -90
41 -47 78 -86 83 -88 4 -2 7 -10 7 -18 0 -8 6 -14 13 -14 6 0 212 201 457 446
245 245 461 454 480 464 37 19 122 39 278 67 50 9 92 21 92 26 0 6 -28 40 -62
77 -35 36 -79 86 -98 110 -19 24 -60 70 -90 102 l-56 58 -129 10 c-72 5 -133
10 -137 10 -5 0 -8 82 -8 183 l0 182 -115 0 -115 0 0 -80 c0 -44 5 -156 10
-250 5 -93 11 -222 12 -285 3 -108 2 -115 -17 -118 -11 -1 -35 12 -56 30 -20
18 -47 42 -62 53 -65 51 -107 97 -107 118 0 12 4 49 9 82 5 33 12 85 15 116
l6 57 -38 5 c-20 3 -72 15 -116 27 -43 11 -86 20 -95 18 -9 -2 -25 4 -35 14
-16 14 -17 20 -6 33 17 20 97 74 127 86 29 11 30 37 1 43 -13 3 -154 7 -315
10 l-292 5 -3 -27 c-3 -23 -7 -27 -33 -25 -32 2 -153 26 -220 44 -48 14 -176
42 -303 69 -51 10 -96 22 -101 25 -5 3 -63 16 -128 30 -65 14 -145 32 -178 40
-33 8 -67 14 -75 13 -8 0 -5 -3 8 -5z"/>
<path d="M4609 7923 c-30 -37 -58 -74 -62 -82 -10 -19 75 70 97 100 13 19 17
20 45 8 16 -7 27 -17 25 -21 -3 -4 0 -8 5 -8 6 0 11 -9 11 -21 0 -14 5 -19 13
-16 15 6 70 -36 62 -47 -3 -3 -2 -4 1 -2 3 2 14 -3 24 -12 21 -17 11 -42 -17
-42 -9 0 -13 -6 -10 -14 4 -11 1 -13 -10 -9 -11 4 -14 2 -9 -5 4 -7 -4 -23
-18 -37 -13 -13 -27 -33 -31 -44 -3 -10 -12 -22 -21 -25 -8 -3 -19 -17 -24
-32 -7 -18 -15 -24 -26 -20 -12 4 -14 1 -9 -14 4 -11 3 -20 -2 -20 -5 0 -17
-16 -27 -35 -14 -26 -24 -34 -37 -30 -14 5 -16 1 -12 -16 5 -17 3 -20 -7 -14
-10 6 -12 4 -7 -8 4 -12 0 -18 -17 -23 -17 -4 -22 -11 -19 -25 3 -10 1 -19 -5
-19 -11 0 -22 34 -22 73 0 35 23 59 52 55 16 -2 24 3 26 17 2 11 10 24 18 28
19 11 18 37 -1 37 -8 0 -15 -7 -15 -15 0 -11 -12 -15 -50 -15 -44 0 -50 3 -50
21 0 18 -4 20 -32 14 -31 -7 -32 -6 -13 9 11 8 26 16 33 16 6 0 12 11 12 25 0
19 -5 25 -21 25 -21 0 -21 1 -4 26 23 36 12 42 -14 6 -11 -16 -18 -32 -14 -36
3 -3 1 -6 -6 -6 -13 0 -50 -39 -51 -52 0 -16 19 -8 24 10 6 17 63 48 73 39 2
-3 -12 -16 -33 -29 l-38 -24 2 -124 c2 -68 5 -127 8 -132 3 -5 0 -7 -8 -6 -7
2 -14 -8 -16 -22 -5 -34 -20 -50 -46 -50 l-21 0 21 18 c12 9 27 27 33 40 11
20 10 22 -19 22 -28 0 -30 2 -30 40 0 39 1 40 35 40 34 0 35 1 35 40 0 36 -2
40 -25 40 -14 0 -25 5 -25 11 0 8 -5 7 -15 -1 -13 -11 -15 -10 -9 6 4 15 0 13
-18 -7 -46 -50 -73 -93 -69 -108 2 -9 5 -45 6 -81 l3 -65 -7 60 c-4 37 -9 55
-14 47 -5 -7 -13 -10 -18 -6 -6 3 -2 12 8 19 10 7 14 17 10 22 -5 4 -15 -1
-22 -12 -8 -11 -18 -24 -22 -30 -79 -99 -87 -117 -58 -129 18 -7 20 -26 2 -26
-17 0 -67 -48 -67 -65 0 -19 -57 -49 -62 -33 -2 6 -9 8 -16 4 -9 -5 -8 -14 5
-32 12 -19 18 -22 24 -12 5 7 9 9 9 5 0 -12 30 20 30 32 0 12 14 14 48 5 18
-5 22 -13 22 -45 0 -28 -4 -39 -15 -39 -11 0 -15 11 -15 40 0 22 -3 40 -6 40
-3 0 -18 -13 -34 -30 -15 -16 -30 -27 -33 -23 -4 3 -9 -2 -13 -11 -3 -9 -13
-16 -21 -16 -11 0 -13 3 -5 13 7 8 6 17 -3 30 -17 23 -24 11 -19 -33 7 -58
-24 -108 -47 -76 -4 4 -10 3 -13 -3 -4 -6 -2 -11 3 -11 6 0 11 -9 11 -19 0
-15 -8 -21 -32 -23 -32 -3 -33 -4 -30 -45 3 -34 0 -43 -12 -43 -22 0 -20 -17
2 -23 15 -4 15 -5 0 -6 -9 0 -20 -10 -23 -21 -3 -11 -15 -20 -25 -20 -15 0
-30 -18 -30 -36 0 -10 69 -3 73 9 4 9 8 9 14 1 11 -16 92 -23 86 -8 -4 12 52
74 68 74 5 0 9 18 9 40 0 46 5 49 31 18 l19 -23 6 23 c3 12 10 22 15 22 5 0 9
8 10 18 0 15 2 14 10 -3 8 -18 9 -17 5 5 -2 14 -7 34 -11 45 -4 11 -3 16 2 10
4 -5 17 -17 27 -25 18 -14 19 -13 13 8 -4 18 -2 22 10 18 8 -3 19 -6 25 -6 5
0 -7 -19 -26 -42 -20 -23 -36 -47 -36 -53 0 -6 -20 -31 -45 -55 -25 -24 -45
-52 -45 -61 0 -18 -19 -29 -50 -29 -11 0 -24 -8 -29 -17 -6 -10 -11 -12 -11
-5 0 15 -32 16 -48 0 -15 -15 -16 -48 -2 -48 6 0 10 6 10 14 0 17 18 31 27 22
3 -3 0 -13 -8 -22 -11 -13 -11 -15 2 -12 7 1 14 -2 14 -7 0 -6 -6 -9 -13 -7
-8 2 -12 -2 -10 -10 5 -15 -43 -84 -72 -105 -11 -8 -20 -20 -20 -28 0 -7 -16
-27 -36 -44 -19 -17 -32 -36 -29 -41 8 -12 -5 -13 -24 -1 -19 12 -9 34 30 62
18 12 29 17 24 9 -5 -8 -4 -11 3 -6 6 4 9 13 5 22 -6 17 33 64 54 64 7 0 13
11 13 25 0 15 6 25 14 25 8 0 17 8 21 18 5 14 4 15 -6 5 -18 -18 -30 -16 -23
2 5 12 -3 15 -40 15 -42 0 -46 -2 -46 -25 0 -16 -6 -25 -15 -25 -8 0 -15 -7
-15 -15 0 -9 -9 -15 -25 -15 -20 0 -25 5 -25 25 0 16 6 25 15 25 8 0 15 7 15
15 0 14 -18 20 -50 15 -12 -1 -13 1 -2 11 6 7 12 18 12 24 -1 5 -9 0 -20 -13
-11 -13 -28 -22 -38 -20 -20 3 -80 -58 -68 -69 7 -8 9 -7 35 37 16 28 21 31
21 15 0 -12 -6 -27 -12 -33 -18 -18 6 -32 55 -32 36 0 37 -1 37 -39 0 -22 5
-41 13 -44 10 -4 10 -7 0 -18 -7 -7 -13 -25 -13 -40 0 -16 -9 -33 -22 -43
l-23 -17 23 5 c12 2 22 0 22 -4 0 -9 -57 -23 -75 -20 -23 5 -55 -1 -55 -9 0
-5 12 -12 28 -14 15 -3 -11 -5 -58 -5 -120 -1 -121 -5 -5 -12 l100 -6 -130 -4
-130 -4 85 -6 85 -7 -95 0 c-52 0 -100 4 -107 9 -9 7 -17 5 -28 -5 -8 -9 -15
-17 -15 -20 0 -6 91 -6 238 0 112 4 134 8 140 22 3 9 13 22 23 28 13 10 16 23
13 53 -3 31 -1 38 11 34 18 -7 19 -16 3 -32 -6 -6 -9 -15 -5 -19 8 -7 10 -5
77 83 76 100 170 218 205 258 6 6 30 38 55 71 50 66 64 84 98 123 12 15 55 70
94 122 40 52 75 97 78 100 5 4 95 116 153 190 7 9 37 47 67 85 30 39 75 97 99
130 24 33 54 69 65 80 12 11 28 30 36 41 8 12 44 59 79 104 l64 83 -25 21
c-37 30 -127 107 -156 134 -14 12 -26 22 -27 22 -1 0 -26 -30 -56 -67z m-111
-555 c-5 -10 -16 -18 -24 -18 -9 0 -14 -6 -11 -13 3 -7 -1 -21 -9 -32 -13 -18
-14 -18 -14 4 0 13 -4 20 -11 15 -6 -3 -9 -17 -6 -31 3 -17 -4 -32 -24 -53
-16 -16 -29 -33 -29 -38 0 -5 -9 -17 -20 -27 -22 -20 -28 -7 -7 14 10 11 9 13
-3 9 -8 -3 -14 -16 -14 -29 1 -13 -2 -26 -5 -29 -16 -12 -71 -89 -71 -99 0 -6
-8 -8 -17 -4 -10 3 -15 3 -11 -2 8 -8 -39 -75 -52 -75 -5 0 -8 25 -8 55 0 37
5 55 13 55 7 0 15 7 19 15 3 8 10 15 17 15 6 0 9 -6 6 -14 -4 -10 0 -12 14 -9
23 6 25 29 3 41 -14 8 -13 12 10 28 49 34 73 59 80 82 4 12 11 22 15 22 15 0
53 39 71 72 12 22 26 34 44 36 14 2 27 8 27 13 1 5 3 14 4 19 1 6 3 16 4 23 2
6 6 3 10 -8 5 -11 4 -28 -1 -37z"/>
<path d="M8400 7779 c0 -5 9 -9 21 -9 41 0 160 -42 172 -61 7 -11 16 -19 22
-19 13 0 75 -71 70 -80 -3 -4 3 -7 13 -6 9 0 17 -6 17 -14 0 -11 -11 -15 -45
-14 -39 1 -45 4 -43 22 2 13 -10 32 -32 50 -18 17 -31 32 -29 35 3 2 -16 8
-41 11 -25 4 -45 11 -45 16 0 7 -35 13 -135 23 -22 3 -49 1 -61 -3 -11 -5 -27
-4 -36 1 -10 5 -26 5 -40 0 -12 -6 -17 -10 -9 -10 8 -1 11 -7 7 -17 -4 -11 1
-18 14 -21 25 -7 25 -11 -2 -35 l-23 -20 28 7 c32 8 56 -8 54 -36 -1 -19 -17
-28 -17 -9 0 6 -7 10 -15 10 -21 0 -19 -17 3 -22 9 -3 19 -5 22 -5 16 1 50
-26 50 -39 0 -9 -5 -12 -12 -8 -10 6 -10 4 0 -7 20 -21 14 -34 -7 -15 -11 10
-28 16 -38 13 -14 -4 -14 -5 5 -6 12 0 22 -7 22 -15 0 -8 11 -17 25 -20 18 -5
25 -13 25 -31 0 -13 8 -28 17 -34 10 -5 15 -12 12 -15 -3 -3 -17 6 -33 20 -45
42 -42 19 3 -25 45 -44 46 -44 106 -32 22 5 99 21 170 36 72 15 148 31 170 36
22 4 57 8 78 9 20 0 37 5 37 10 0 6 -3 10 -8 10 -8 0 -41 29 -147 129 -174
163 -194 180 -227 185 -77 12 -118 14 -118 5z"/>
<path d="M9085 7368 c-22 -5 -66 -13 -99 -18 -32 -6 -84 -16 -115 -24 -31 -8
-92 -20 -136 -26 -44 -7 -102 -18 -130 -26 -27 -7 -93 -20 -145 -29 -52 -8
-151 -27 -220 -40 -69 -14 -170 -34 -225 -44 -55 -10 -174 -33 -265 -51 -91
-17 -176 -34 -189 -36 -22 -5 -63 -42 -145 -135 -61 -68 -269 -290 -396 -422
-63 -66 -119 -125 -125 -132 -5 -6 -37 -39 -70 -73 -58 -61 -59 -62 -31 -62
24 0 27 2 16 15 -8 9 -8 15 -2 15 6 0 47 37 91 82 45 45 84 79 87 76 3 -4 -4
-12 -16 -18 -12 -6 -19 -14 -16 -17 2 -3 -4 -14 -14 -25 -10 -11 -16 -27 -13
-36 4 -10 2 -13 -5 -8 -7 4 -12 1 -12 -8 0 -8 -8 -17 -17 -19 -10 -3 43 -6
117 -8 l135 -3 -95 -6 -95 -6 84 -2 c46 -1 82 -5 78 -8 -3 -3 -58 -6 -121 -5
-73 0 -116 -3 -116 -9 0 -7 216 -10 666 -8 l666 3 26 30 c15 17 47 55 72 85
25 30 74 89 110 131 36 42 112 134 170 204 58 70 110 133 115 139 6 6 39 47
75 91 35 44 76 94 91 110 108 119 280 335 267 334 -7 -1 -31 -5 -53 -11z"/>
<path d="M5040 6985 l0 -85 30 -1 c128 -5 120 -11 120 86 l0 85 -75 0 -75 0 0
-85z"/>
<path d="M4786 7041 c-3 -5 -5 -39 -5 -75 1 -77 3 -79 112 -74 l68 3 2 75 2
75 -87 2 c-48 2 -89 -1 -92 -6z"/>
<path d="M4790 6794 c0 -17 -3 -59 -6 -93 l-7 -61 97 0 c110 0 101 -11 90 112
l-7 67 -83 3 -84 3 0 -31z"/>
<path d="M5040 6730 l0 -90 75 0 75 0 0 90 0 90 -75 0 -75 0 0 -90z"/>
<path d="M8980 6630 l0 -51 107 3 107 3 1 48 1 47 -108 0 -108 0 0 -50z"/>
<path d="M8997 6543 c-13 -3 -17 -13 -15 -39 l2 -34 111 0 c65 0 104 4 96 9
-9 6 -10 11 -2 15 6 4 11 15 11 25 0 14 -11 20 -46 25 -51 7 -129 6 -157 -1z"/>
<path d="M5595 6194 c-33 -13 -70 -23 -81 -23 -12 -1 -27 -7 -33 -15 -10 -12
-8 -17 11 -27 13 -7 26 -17 30 -23 4 -6 8 -62 8 -125 l0 -113 -32 7 c-64 15
-104 12 -167 -11 -114 -40 -171 -122 -171 -243 0 -38 4 -81 10 -95 15 -40 81
-107 125 -127 67 -31 157 -19 194 24 7 10 22 17 32 17 15 0 17 -5 13 -30 -8
-37 3 -38 95 -10 36 11 79 22 94 25 32 7 27 25 -8 25 -60 0 -56 -22 -54 387 1
205 0 375 -2 377 -2 2 -31 -7 -64 -20z m-105 -383 l35 -29 3 -145 3 -146 -27
-18 c-37 -24 -102 -23 -137 2 -61 44 -91 155 -68 253 26 107 116 146 191 83z"/>
<path d="M1942 6153 c2 -9 17 -20 33 -25 17 -4 36 -16 42 -27 9 -14 14 -107
18 -313 5 -278 5 -295 -14 -324 -11 -19 -34 -37 -54 -43 -20 -7 -38 -18 -41
-26 -5 -13 22 -15 180 -15 140 0 185 3 182 12 -3 7 -19 16 -37 20 -20 6 -39
21 -52 41 -19 30 -19 47 -17 344 2 171 7 315 11 320 5 4 35 8 68 8 53 -1 62
-4 94 -35 19 -18 40 -49 46 -68 17 -51 7 -209 -15 -252 -24 -44 -39 -54 -101
-60 -36 -4 -50 -9 -50 -20 0 -22 93 -25 151 -5 110 37 174 131 174 253 -1 111
-55 175 -181 212 -56 17 -96 20 -253 20 -171 0 -187 -2 -184 -17z"/>
<path d="M6810 6161 c0 -5 19 -20 42 -33 38 -21 43 -28 51 -73 4 -27 7 -172 5
-323 l-3 -274 -24 -20 c-14 -10 -37 -22 -53 -25 -15 -3 -28 -12 -28 -19 0 -11
35 -14 186 -14 140 0 185 3 182 12 -3 7 -17 15 -32 19 -16 5 -39 18 -52 30
l-24 22 0 318 c0 360 -4 345 82 343 58 -1 93 -23 125 -80 41 -70 26 -234 -27
-304 -14 -19 -30 -26 -72 -30 -38 -3 -53 -9 -53 -20 0 -20 75 -25 135 -9 99
26 164 97 182 201 26 150 -36 233 -206 272 -76 18 -416 23 -416 7z"/>
<path d="M8091 6114 c-28 -35 -26 -75 4 -108 35 -38 77 -35 109 7 33 42 32 58
0 96 -34 41 -83 43 -113 5z"/>
<path d="M9515 6115 c-30 -30 -32 -67 -4 -106 29 -41 78 -40 113 2 33 39 33
69 0 103 -34 34 -77 34 -109 1z"/>
<path d="M6349 6036 c-6 -13 -22 -30 -35 -37 -13 -7 -24 -16 -24 -21 0 -4 -30
-8 -67 -8 -63 0 -65 -1 -50 -18 9 -10 20 -40 23 -65 l7 -47 146 0 c185 0 187
1 194 53 2 23 8 50 12 60 6 14 1 17 -33 17 -55 0 -100 21 -122 58 -23 38 -37
40 -51 8z"/>
<path d="M9154 5969 c-16 -17 -50 -47 -76 -67 -52 -39 -62 -69 -25 -74 22 -3
22 -6 27 -179 5 -145 9 -181 23 -203 27 -40 76 -66 125 -66 44 0 127 35 151
64 12 14 6 15 -55 13 -67 -2 -68 -2 -91 32 -21 31 -23 44 -23 168 0 74 5 143
10 154 9 16 22 19 86 19 l75 0 -3 28 c-3 27 -4 27 -85 30 l-83 3 0 54 c0 65
-12 70 -56 24z"/>
<path d="M2760 5884 c-87 -39 -103 -48 -108 -61 -2 -7 5 -16 15 -20 10 -3 21
-11 25 -17 4 -6 8 -88 8 -182 l0 -172 -30 -12 c-16 -7 -30 -19 -30 -26 0 -11
27 -14 135 -14 86 0 135 4 135 10 0 6 -8 13 -17 17 -10 3 -28 15 -40 26 -22
19 -23 28 -23 156 0 159 8 181 63 194 30 7 42 6 57 -8 10 -9 29 -15 41 -13 29
4 63 60 54 88 -17 52 -86 46 -160 -14 -24 -20 -47 -36 -50 -36 -4 0 -5 14 -1
31 6 32 -1 80 -13 78 -3 0 -31 -12 -61 -25z"/>
<path d="M3776 5901 c-3 -5 -38 -21 -76 -36 -74 -28 -84 -43 -47 -67 21 -15
22 -23 25 -168 2 -84 1 -164 -3 -177 -3 -15 -19 -30 -40 -39 -63 -26 -40 -34
95 -34 134 0 154 7 100 35 l-30 16 0 164 0 164 26 20 c14 11 42 23 62 27 31 6
39 3 64 -25 l28 -31 0 -164 0 -163 -25 -11 c-51 -24 -26 -32 95 -32 100 0 120
3 120 15 0 8 -6 15 -13 15 -8 0 -21 8 -30 18 -14 16 -17 41 -16 158 1 76 4
150 8 163 7 27 63 61 99 61 13 0 34 -12 47 -26 24 -26 25 -31 25 -193 0 -161
-1 -167 -22 -176 -12 -6 -23 -16 -26 -22 -3 -10 26 -13 122 -13 130 0 150 7
96 35 l-30 16 0 152 c0 196 -19 257 -90 291 -14 7 -41 11 -60 9 -39 -4 -140
-50 -140 -64 0 -17 -39 -9 -50 11 -13 24 -61 50 -103 56 -32 4 -119 -29 -138
-52 -6 -8 -20 -14 -30 -14 -15 0 -17 7 -16 41 2 40 -14 62 -27 40z"/>
<path d="M8500 5891 c-14 -9 -45 -23 -70 -30 -73 -21 -87 -40 -45 -59 l25 -12
0 -184 0 -184 -30 -7 c-16 -4 -30 -13 -30 -21 0 -11 24 -14 125 -14 102 0 125
3 125 14 0 8 -10 16 -22 18 -23 3 -23 5 -26 180 l-2 177 28 15 c77 40 140 26
161 -36 6 -17 11 -93 11 -169 0 -112 -3 -141 -16 -153 -8 -9 -21 -16 -29 -16
-7 0 -15 -7 -19 -15 -5 -13 13 -15 124 -15 99 0 130 3 130 13 0 7 -13 18 -29
24 l-29 10 -4 174 c-5 198 -12 222 -78 264 -55 35 -129 25 -200 -25 -42 -30
-50 -25 -50 25 0 50 -10 55 -50 26z"/>
<path d="M9555 5870 c-44 -22 -86 -39 -92 -40 -23 0 -14 -29 11 -36 30 -7 36
-39 36 -204 0 -135 -10 -173 -48 -178 -12 -2 -22 -10 -22 -18 0 -11 24 -14
130 -14 99 0 130 3 130 13 0 7 -14 18 -31 24 l-31 12 3 235 c1 130 0 238 -2
240 -2 2 -40 -13 -84 -34z"/>
<path d="M8125 5865 c-38 -19 -76 -34 -82 -35 -23 0 -13 -30 12 -36 l25 -6 0
-180 0 -180 -30 -11 c-16 -6 -32 -17 -34 -24 -4 -10 24 -13 134 -13 82 0 140
4 140 10 0 5 -15 16 -34 25 l-33 16 -7 147 c-3 81 -2 183 3 227 4 44 6 83 4
88 -7 12 -25 7 -98 -28z"/>
<path d="M9866 5867 c-44 -18 -81 -37 -83 -43 -2 -6 8 -16 22 -22 l25 -12 0
-185 c0 -177 -1 -185 -20 -185 -10 0 -24 -9 -30 -20 -10 -20 -8 -20 120 -20
134 0 154 7 100 35 l-30 16 0 169 c0 163 1 169 22 184 28 20 81 30 113 22 14
-4 34 -21 45 -39 17 -28 20 -51 20 -179 0 -120 -3 -149 -16 -162 -8 -9 -21
-16 -29 -16 -7 0 -15 -7 -19 -15 -5 -13 13 -15 124 -15 109 0 130 2 130 15 0
8 -8 15 -19 15 -10 0 -23 6 -29 13 -5 6 -12 91 -14 188 -4 161 -7 179 -27 207
-57 80 -157 89 -251 22 -41 -29 -50 -25 -50 20 0 26 -4 40 -12 39 -7 0 -49
-15 -92 -32z"/>
<path d="M3340 5883 c-53 -9 -97 -27 -151 -64 -66 -44 -99 -87 -78 -100 32
-21 110 20 102 52 -8 28 24 59 61 59 53 0 60 -12 64 -99 l4 -80 -43 -21 c-23
-12 -63 -28 -88 -36 -56 -16 -111 -67 -111 -101 0 -57 56 -113 112 -113 13 0
50 14 82 30 l58 30 34 -30 c47 -40 87 -40 144 3 l45 32 -45 3 c-25 2 -48 9
-52 15 -4 7 -8 84 -8 172 0 141 -2 164 -20 192 -16 26 -70 67 -82 62 -2 -1
-14 -4 -28 -6z"/>
<path d="M4748 5870 c-94 -30 -161 -100 -185 -193 -28 -109 11 -199 111 -262
40 -24 62 -30 121 -33 62 -4 79 0 126 23 30 15 67 39 82 54 58 53 89 169 68
247 -14 51 -78 125 -127 149 -56 27 -140 33 -196 15z m132 -66 c39 -44 47 -66
55 -141 10 -87 -8 -180 -42 -215 -59 -62 -153 -16 -184 90 -15 50 -19 180 -7
223 4 14 17 38 29 52 17 23 28 27 69 27 43 0 51 -4 80 -36z"/>
<path d="M7676 5860 c-111 -46 -201 -150 -130 -150 43 0 84 30 84 62 0 31 32
58 70 58 42 0 50 -17 50 -102 l0 -78 -47 -23 c-27 -14 -65 -30 -86 -36 -99
-33 -127 -106 -66 -176 37 -42 84 -47 139 -15 79 46 81 46 99 24 41 -51 96
-57 153 -18 21 15 38 30 38 35 0 4 -19 9 -42 11 -42 3 -43 4 -51 48 -4 25 -5
95 -2 157 8 138 0 169 -57 206 -52 33 -65 33 -152 -3z"/>
<path d="M10578 5866 c-57 -20 -85 -42 -114 -88 -23 -36 -26 -49 -21 -95 4
-39 14 -65 34 -90 52 -65 51 -60 5 -101 -52 -47 -54 -73 -7 -118 32 -30 46
-64 27 -64 -5 0 -28 -18 -50 -41 -35 -34 -42 -47 -42 -80 0 -95 53 -131 201
-137 87 -4 100 -2 147 22 75 38 114 77 151 150 26 51 32 71 26 96 -15 70 -40
81 -229 105 -146 18 -169 26 -164 58 3 20 10 23 83 28 83 5 121 20 166 61 45
42 60 75 67 145 l7 68 40 3 c48 4 59 13 50 41 -5 18 -14 21 -55 21 -26 0 -84
7 -127 15 -95 18 -146 18 -195 1z m138 -47 c14 -16 20 -40 23 -100 5 -118 -21
-168 -86 -169 -59 0 -100 87 -90 189 8 71 35 101 92 101 30 0 47 -6 61 -21z
m-17 -509 c30 -5 69 -14 88 -20 30 -11 33 -15 33 -53 0 -51 -28 -100 -72 -127
-66 -40 -197 -17 -228 40 -13 25 -13 96 1 121 16 31 70 60 99 54 14 -3 49 -9
79 -15z"/>
<path d="M6200 5791 c0 -5 27 -36 59 -70 82 -83 104 -170 60 -231 -43 -57 -20
-110 49 -110 67 0 94 57 52 110 -48 61 -9 187 78 257 28 22 48 43 45 47 -10
10 -343 7 -343 -3z"/>
<path d="M3048 5244 c-5 -4 -8 -61 -8 -126 0 -111 1 -118 20 -118 16 0 20 7
20 35 0 33 2 35 35 35 39 0 105 24 117 43 4 7 8 28 8 48 0 36 -17 60 -53 72
-30 11 -132 19 -139 11z"/>
<path d="M3506 5228 c-9 -12 -16 -26 -16 -30 0 -4 -20 -49 -45 -99 -25 -51
-42 -96 -38 -100 11 -11 26 1 40 34 12 26 16 27 82 27 66 0 69 -1 81 -29 12
-29 34 -46 50 -36 4 3 -7 35 -25 73 -18 37 -45 93 -59 125 -27 61 -45 71 -70
35z"/>
<path d="M4094 5237 c-2 -7 -3 -65 -2 -128 2 -93 6 -114 18 -114 12 0 16 19
20 89 l5 89 32 -37 c18 -20 41 -49 50 -64 25 -41 65 -82 80 -82 10 0 13 29 13
130 0 109 -2 130 -15 130 -12 0 -15 -16 -15 -84 0 -47 -4 -87 -9 -90 -4 -3
-41 35 -80 84 -72 90 -87 102 -97 77z"/>
<path d="M4497 5244 c-14 -15 8 -34 39 -34 l33 0 3 -107 c3 -100 4 -108 23
-108 19 0 20 8 23 107 l3 107 37 3 c25 2 37 8 37 18 0 12 -19 15 -96 17 -53 1
-99 0 -102 -3z"/>
<path d="M5137 5243 c-2 -5 -1 -63 1 -131 3 -86 8 -122 16 -119 7 2 12 37 14
91 3 88 12 103 36 61 26 -44 117 -150 128 -149 4 1 13 2 18 3 7 0 10 45 8 124
-3 100 -6 122 -18 122 -12 0 -16 -18 -20 -83 -3 -45 -8 -83 -11 -85 -3 -1 -29
27 -57 63 -83 106 -104 124 -115 103z"/>
<path d="M5635 5238 c-41 -15 -54 -26 -75 -69 -46 -89 29 -177 141 -167 27 3
55 11 64 18 21 17 21 100 0 100 -10 0 -15 -11 -15 -35 0 -29 -5 -37 -27 -46
-30 -11 -77 -4 -110 17 -19 12 -23 24 -23 64 0 41 4 52 26 69 32 25 94 28 129
5 24 -16 25 -16 25 9 0 19 -6 26 -29 30 -16 3 -39 8 -52 11 -13 3 -37 0 -54
-6z"/>
<path d="M6190 5229 c0 -15 7 -19 35 -19 l34 0 3 -107 c3 -100 4 -108 23 -108
19 0 20 8 23 107 l3 107 37 3 c25 2 37 8 37 18 0 12 -18 15 -97 17 -91 1 -98
0 -98 -18z"/>
<path d="M6575 5238 c-3 -8 -4 -66 -3 -129 2 -93 6 -114 18 -114 11 0 16 15
20 55 l5 55 73 3 72 3 0 -61 c0 -52 3 -61 17 -58 14 3 16 19 16 128 -1 106 -4
125 -17 128 -13 3 -16 -6 -16 -47 0 -58 -10 -65 -96 -59 l-49 3 -5 49 c-5 48
-24 72 -35 44z"/>
<path d="M7005 5208 c-3 -24 -2 -81 2 -128 l8 -85 88 -3 c82 -3 87 -2 87 18 0
18 -6 20 -70 20 l-70 0 0 40 0 40 60 0 c47 0 60 3 60 15 0 12 -13 15 -59 15
-52 0 -59 2 -65 23 -12 45 -10 47 69 47 68 0 75 2 75 20 0 19 -7 20 -89 20
l-90 0 -6 -42z"/>
<path d="M7622 5122 c3 -105 6 -127 18 -127 11 0 16 15 20 55 l5 55 58 3 c46
2 57 6 57 20 0 15 -10 17 -57 17 -58 0 -58 0 -61 32 l-3 32 63 3 c50 2 63 6
66 20 3 16 -6 18 -83 17 l-86 -1 3 -126z"/>
<path d="M7968 5243 c-4 -6 -3 -78 1 -171 1 -8 14 -27 30 -43 40 -39 115 -42
158 -5 26 23 28 31 33 118 5 90 0 111 -24 102 -7 -3 -10 -32 -8 -82 3 -67 1
-81 -18 -104 -26 -33 -76 -38 -109 -10 -18 15 -21 30 -23 107 -3 74 -6 90 -20
93 -9 2 -18 -1 -20 -5z"/>
<path d="M8754 5236 c-3 -9 -4 -54 -3 -102 4 -75 7 -88 27 -105 43 -34 89 -40
137 -18 51 24 55 35 55 152 0 71 -3 87 -15 87 -12 0 -15 -14 -15 -67 0 -132
-23 -164 -105 -149 -39 8 -43 20 -48 140 -1 45 -6 71 -14 74 -7 2 -16 -3 -19
-12z"/>
<path d="M9180 5119 c0 -100 3 -130 13 -127 6 3 14 20 17 39 5 33 6 34 50 34
39 0 46 -4 58 -27 7 -16 22 -32 32 -38 29 -16 36 7 11 41 -26 35 -26 41 -1 64
23 21 27 82 8 107 -15 18 -91 38 -147 38 l-41 0 0 -131z"/>
<path d="M9594 5237 c-2 -7 -3 -65 -2 -128 l3 -114 90 0 c77 0 90 2 93 18 3
15 -6 17 -78 17 l-81 0 3 38 4 37 62 3 c46 2 62 7 62 17 0 11 -13 15 -54 15
-57 0 -80 15 -74 47 3 15 16 19 73 23 53 4 70 9 70 20 0 21 -163 28 -171 7z"/>
<path d="M6955 4555 c-27 -14 -58 -25 -67 -25 -27 0 -21 -29 7 -40 l25 -10 -2
-312 -3 -312 -24 -6 c-14 -3 -26 -11 -29 -18 -3 -9 24 -12 107 -12 92 0 111 3
111 15 0 8 -7 15 -15 15 -8 0 -19 9 -25 19 -13 25 -13 171 0 171 10 0 117
-140 127 -166 4 -10 -2 -17 -16 -21 -11 -3 -21 -12 -21 -19 0 -11 25 -14 125
-14 129 0 152 8 93 33 -41 18 -75 52 -145 144 -30 40 -59 75 -64 79 -5 3 -9
14 -9 24 0 26 121 127 170 141 22 7 39 16 38 21 -2 5 -7 9 -11 9 -4 -1 -45 -1
-92 -1 -55 0 -85 -4 -85 -11 0 -6 9 -13 20 -16 11 -3 20 -10 20 -15 0 -16
-132 -148 -148 -148 -11 0 -13 42 -10 250 3 282 9 267 -77 225z"/>
<path d="M7476 4529 c-27 -21 -27 -21 -22 -128 4 -77 9 -106 18 -106 16 0 77
176 78 223 0 27 -4 32 -24 32 -13 0 -35 -9 -50 -21z"/>
<path d="M4880 4520 c0 -6 16 -18 35 -27 40 -19 47 -32 170 -318 42 -99 87
-202 99 -230 13 -27 29 -65 37 -83 8 -18 20 -31 27 -30 7 2 35 53 62 113 79
174 84 185 94 182 5 -2 27 -46 48 -98 21 -51 42 -103 47 -114 6 -11 17 -37 25
-57 8 -21 20 -38 26 -38 12 0 11 -3 85 190 31 80 62 159 70 175 7 17 30 75 50
130 51 137 60 152 105 175 22 11 40 25 40 30 0 6 -42 10 -101 10 -76 0 -100
-3 -97 -12 3 -7 17 -19 31 -26 15 -7 27 -18 27 -23 0 -32 -153 -452 -166 -456
-5 -2 -22 30 -37 70 -16 39 -36 85 -44 101 -29 53 -22 106 26 204 38 78 50 93
82 108 21 9 36 21 33 25 -3 5 -43 9 -90 9 -87 0 -106 -10 -58 -32 23 -11 25
-16 20 -47 -12 -75 -76 -172 -76 -116 0 9 -12 43 -26 76 l-25 61 20 15 c12 8
21 21 21 29 0 12 -43 14 -280 14 -183 0 -280 -4 -280 -10z m348 -40 c33 -20
65 -80 129 -238 l25 -63 -38 -85 c-21 -47 -41 -87 -46 -90 -4 -3 -12 5 -17 18
-5 13 -30 73 -55 133 -91 221 -123 316 -111 336 11 16 79 10 113 -11z"/>
<path d="M6585 4264 c-22 -9 -55 -21 -72 -27 -37 -13 -44 -42 -13 -50 19 -5
20 -14 20 -166 l0 -161 -25 -10 c-54 -21 -24 -30 95 -30 98 0 118 3 114 14 -3
8 -18 16 -33 19 -34 7 -41 33 -41 142 0 129 8 161 45 181 31 16 35 17 59 1 14
-9 34 -17 44 -17 24 0 45 39 40 76 -3 27 -5 29 -49 28 -38 0 -54 -6 -83 -32
-49 -43 -59 -41 -51 8 8 45 6 45 -50 24z"/>
<path d="M6085 4251 c-193 -90 -193 -366 0 -420 125 -35 236 13 289 124 31 66
33 126 7 181 -56 115 -187 166 -296 115z m132 -41 c41 -39 58 -95 57 -190 -2
-121 -46 -182 -118 -164 -64 16 -117 167 -95 272 21 105 92 142 156 82z"/>
<path d="M7742 4254 c-49 -25 -72 -60 -72 -109 0 -52 24 -85 96 -131 71 -46
84 -60 84 -98 0 -40 -26 -66 -64 -66 -29 0 -90 55 -102 92 -5 17 -25 24 -37
12 -3 -3 -2 -18 3 -32 5 -15 11 -39 14 -54 5 -23 13 -28 62 -38 67 -14 134 -6
167 20 13 10 32 39 41 64 15 40 15 48 2 79 -14 34 -100 111 -141 127 -11 4
-27 20 -35 35 -12 23 -12 30 1 53 27 50 106 38 129 -19 7 -15 19 -30 27 -33
13 -5 15 1 10 40 -2 25 -9 50 -15 56 -19 19 -134 20 -170 2z"/>
</g>
</svg>
