<svg version="1.1" id="Layer_1" xmlns="http://www.w3.org/2000/svg" xmlns:xlink="http://www.w3.org/1999/xlink" x="0px" y="0px"
	 width="100%" viewBox="0 0 1024 1024" enable-background="new 0 0 1024 1024" xml:space="preserve">
<path fill="#000000" opacity="1.000000" stroke="none" 
	d="
M475.287415,368.905640 
	C474.568268,365.952362 471.650024,364.534119 471.417206,360.724091 
	C486.912292,366.362152 497.649689,361.800262 503.229065,344.468140 
	C509.848083,359.123413 518.928467,367.113098 534.295593,361.020081 
	C535.669067,363.860107 533.459045,364.866608 532.845947,366.441711 
	C531.941956,368.763947 530.879028,371.036407 530.146057,373.411011 
	C527.382202,382.365387 527.422180,382.323456 518.109680,382.269287 
	C507.487152,382.207520 496.863983,382.255005 486.238647,382.549011 
	C499.968781,383.719421 513.734802,383.670990 527.586426,383.686005 
	C528.212402,386.041290 527.923401,388.161743 529.330322,390.070221 
	C530.728455,391.966766 529.177612,393.389343 527.251526,394.218414 
	C524.044617,395.598724 521.176086,397.485565 518.456665,400.152679 
	C521.055420,403.007812 524.428894,403.316406 527.575256,403.726898 
	C541.259155,405.512146 542.041199,405.564545 539.964172,418.932007 
	C538.645996,427.415924 541.338501,432.558563 547.989685,436.626526 
	C550.329956,438.057892 551.633362,440.961731 555.265808,441.602478 
	C556.192566,436.161804 555.937317,430.865051 555.403320,425.694366 
	C554.116638,413.235260 555.517883,400.706360 554.113281,388.265167 
	C553.787659,385.381439 555.197021,383.862701 558.154175,383.896881 
	C559.320068,383.910370 560.485962,383.930389 561.651855,383.945587 
	C575.083374,384.120758 575.089233,384.120636 575.163818,397.808899 
	C575.184631,401.639984 575.220276,405.472687 575.136963,409.302185 
	C575.074402,412.174683 576.256836,413.713257 579.225342,413.679565 
	C579.724060,413.673889 580.236389,413.812012 580.720703,413.739288 
	C593.403748,411.835419 601.797485,418.083252 608.725830,427.869446 
	C612.810547,433.639069 617.709229,438.832489 622.098816,444.113007 
	C620.516479,446.801666 618.264465,446.520599 616.417358,446.943146 
	C611.555664,448.055267 606.684143,449.362213 601.743896,449.839111 
	C593.533630,450.631683 587.706177,455.042389 582.155884,460.648651 
	C561.651978,481.359375 540.962219,501.886108 520.319214,522.458923 
	C516.190491,526.573608 515.474426,526.431274 511.761658,522.090759 
	C479.073761,483.876343 446.356445,445.687042 413.651520,407.487213 
	C404.338135,396.609070 395.036194,385.721130 385.730438,374.836487 
	C384.976349,373.954468 384.125275,373.105469 384.852936,370.539001 
	C415.049103,377.504150 445.306152,384.483337 475.741272,391.503571 
	C481.225433,383.936005 476.585693,376.608521 475.287415,368.905640 
M502.822876,366.770416 
	C502.522156,369.031036 501.749542,371.338104 503.370056,374.109894 
	C504.813019,370.321381 504.529938,367.261688 503.428986,363.447662 
	C503.176727,364.841949 503.060211,365.485870 502.822876,366.770416 
z"/>
<path fill="#000000" opacity="1.000000" stroke="none" 
	d="
M713.927124,436.728027 
	C720.798767,435.837738 727.069031,433.444885 734.131409,433.875580 
	C733.388306,437.275360 731.251038,439.010620 729.629456,440.961639 
	C708.245178,466.689087 686.632324,492.228821 665.469482,518.136353 
	C660.587646,524.112732 655.469543,526.499634 647.680847,526.405212 
	C614.870178,526.007019 582.051086,526.309570 549.235107,526.316040 
	C546.796753,526.316528 544.260925,526.762146 541.921753,525.487244 
	C541.304321,523.128174 543.248352,522.155090 544.390259,520.932129 
	C562.913574,501.093750 581.499268,481.313538 600.047058,461.497955 
	C602.041260,459.367523 604.288635,457.775452 607.200195,457.225433 
	C640.044800,451.020935 672.890259,444.820862 705.729980,438.590637 
	C708.341736,438.095123 710.912598,437.383972 713.927124,436.728027 
z"/>
<path fill="#000000" opacity="1.000000" stroke="none" 
	d="
M266.511475,526.127075 
	C265.252380,525.986755 264.408752,525.941711 263.622955,525.704712 
	C263.186615,525.573120 262.846863,525.121216 261.884766,524.349243 
	C266.492004,518.330444 270.990295,512.251038 275.697357,506.337891 
	C304.626465,469.996307 333.598328,433.688751 362.570984,397.381866 
	C365.269653,394.000031 368.183655,390.785645 370.795532,387.340240 
	C373.264893,384.082886 375.598724,384.526642 378.299805,386.967102 
	C382.004852,390.314575 385.740936,393.637421 389.614807,396.784912 
	C392.232971,398.912170 392.441895,400.722168 390.276672,403.451355 
	C369.171295,430.053833 348.164185,456.734344 327.141846,483.402679 
	C317.557983,495.560486 307.861877,507.633942 298.507721,519.966370 
	C295.068420,524.500793 291.218231,526.727234 285.431519,526.322144 
	C279.297241,525.892761 273.113373,526.172241 266.511475,526.127075 
z"/>
<path fill="#000000" opacity="1.000000" stroke="none" 
	d="
M772.362671,508.604614 
	C759.796875,493.256653 747.556458,478.103058 735.058838,463.164673 
	C732.329651,459.902466 731.506775,457.369446 734.845398,454.256012 
	C735.929688,453.244904 736.769226,451.962189 737.671509,450.766541 
	C743.983582,442.402802 743.637207,443.560822 749.558594,450.867371 
	C769.160583,475.054901 788.651550,499.332520 808.139893,523.611877 
	C809.136169,524.853149 810.525085,525.993225 810.503235,528.157776 
	C807.996704,529.824646 804.972900,529.812256 802.071716,530.010071 
	C795.763123,530.440247 789.411194,529.732788 783.114380,530.674744 
	C780.690918,531.037170 779.187378,529.595764 779.929443,527.555298 
	C783.030945,519.026855 777.103149,514.277466 772.362671,508.604614 
z"/>
<path fill="#000000" opacity="1.000000" stroke="none" 
	d="
M442.387756,717.390015 
	C439.391205,710.157104 436.564667,703.252319 433.357269,695.417236 
	C429.371735,702.117188 427.114288,708.662781 424.194214,714.879822 
	C423.391449,716.588928 423.368500,719.318054 420.870422,719.367065 
	C417.996918,719.423645 418.116608,716.464233 417.307922,714.612976 
	C411.046539,700.279480 404.666107,685.993042 398.740509,671.520935 
	C397.146484,667.627869 392.937622,666.842346 390.014313,662.077698 
	C406.336578,661.721069 421.467804,661.885864 436.915161,661.912781 
	C434.564117,670.947571 434.564758,670.952332 438.440918,676.741028 
	C442.893616,671.646484 443.073425,668.851624 439.293854,663.484741 
	C442.726562,661.351562 449.550110,661.218384 454.117615,663.451050 
	C439.259460,674.207886 438.856232,687.187317 448.495758,702.021973 
	C453.408417,691.352356 456.955719,680.515320 460.431152,669.649658 
	C461.576630,666.068359 456.540985,666.275208 456.609161,663.367249 
	C460.211853,661.223450 469.856598,661.248535 473.918701,663.843201 
	C469.539154,666.557678 465.477142,669.355347 464.070312,674.468323 
	C463.367584,677.022400 462.270233,679.470825 461.306610,681.949707 
	C456.848511,693.417847 452.407745,704.892883 447.882019,716.334412 
	C446.819824,719.019775 445.517151,721.839783 442.387756,717.390015 
M426.779144,680.687073 
	C425.484161,677.814575 424.207550,674.933594 422.888794,672.072083 
	C421.667450,669.421936 419.985535,667.144592 416.994110,666.421387 
	C415.259827,666.002136 413.210724,665.448608 411.848907,667.075928 
	C410.692322,668.458008 411.139832,670.278442 411.754181,671.834106 
	C415.820374,682.129944 419.940857,692.404358 424.290710,703.304810 
	C429.432648,695.965210 432.181763,689.160522 426.779144,680.687073 
z"/>
<path fill="#000000" opacity="1.000000" stroke="none" 
	d="
M671.743774,399.976654 
	C682.680542,399.842834 690.226929,405.310272 697.098999,412.523895 
	C702.452698,418.143646 708.301147,423.291992 714.223938,428.929871 
	C710.376831,431.856323 706.050781,431.569916 702.177795,432.493347 
	C693.605408,434.537109 684.925415,436.127869 676.297119,437.940521 
	C673.162354,438.599091 670.419189,438.228790 668.076782,435.747223 
	C656.314026,423.285675 644.498718,410.873718 632.722778,398.424530 
	C632.412354,398.096344 632.341919,397.541199 631.715698,395.998291 
	C645.393433,396.086670 658.272522,399.011139 671.743774,399.976654 
z"/>
<path fill="#000000" opacity="1.000000" stroke="none" 
	d="
M317.673370,590.421692 
	C319.755585,582.251770 319.002625,574.285767 318.414368,566.380615 
	C318.203796,563.550537 316.403992,560.740173 312.799927,561.296326 
	C309.438080,561.815247 306.102112,563.017944 306.032440,567.320862 
	C305.924683,573.975769 306.195374,580.641296 305.929169,587.287292 
	C305.797455,590.576477 309.359253,591.174866 309.926392,593.764099 
	C306.262421,596.007019 292.988953,596.045715 288.853180,593.723022 
	C298.681641,585.882324 293.526367,575.242065 294.137238,565.652649 
	C294.205231,564.585266 293.661957,563.345398 293.069794,562.391968 
	C290.046051,557.523987 290.055573,557.419617 295.350067,555.598877 
	C296.764069,555.112549 298.211731,554.677185 299.549988,554.025513 
	C306.282593,550.747131 306.271637,550.724670 306.917908,557.872070 
	C321.060638,551.799500 322.744354,551.892639 330.145691,559.351440 
	C332.613953,557.912720 335.049805,556.203552 337.712738,554.994446 
	C345.950256,551.254517 352.548950,554.385803 355.200226,562.997620 
	C356.661255,567.743347 355.862091,572.586609 356.073730,577.385071 
	C356.332977,583.262512 354.312622,589.716125 361.011658,594.188110 
	C353.744019,595.802185 347.041656,595.550415 339.306061,594.817749 
	C346.619812,586.428162 342.958435,577.240112 343.599823,568.629211 
	C343.884674,564.805176 342.425385,561.561157 337.990906,561.283142 
	C333.812286,561.021179 331.241302,563.747437 331.108093,568.584229 
	C330.943329,574.569031 331.464569,580.588806 331.023041,586.544006 
	C330.752655,590.191223 334.887909,590.950623 335.063568,594.721558 
	C328.450653,594.721558 322.000580,594.721558 315.536957,594.721558 
	C314.376770,592.517334 316.208618,591.766907 317.673370,590.421692 
z"/>
<path fill="#000000" opacity="1.000000" stroke="none" 
	d="
M595.380066,558.947388 
	C590.685181,569.328857 583.020508,572.327942 573.580139,572.182129 
	C571.820129,572.154968 569.365356,572.123047 569.518921,569.597778 
	C569.655701,567.348999 571.993652,567.747314 573.552002,567.786011 
	C577.712341,567.889343 580.010254,565.604370 581.395569,562.039856 
	C583.710205,556.084351 583.473938,549.954102 582.329956,543.843628 
	C581.830383,541.175110 580.389648,538.873657 577.947876,537.407471 
	C575.039307,535.660889 571.815918,535.387695 568.845825,536.689514 
	C566.224731,537.838379 566.978943,540.758423 567.006104,542.973633 
	C567.166931,556.122925 566.186890,569.261414 566.839661,582.422852 
	C567.052124,586.707825 567.942444,589.923340 572.386780,591.308472 
	C573.645691,591.700867 575.114441,592.239380 574.574646,594.025757 
	C574.153259,595.420654 572.768433,595.335083 571.624451,595.336853 
	C563.625977,595.349060 555.627380,595.334473 547.629028,595.297546 
	C546.461853,595.292175 545.134644,595.242615 544.852295,593.760986 
	C544.563477,592.245056 545.768372,591.767883 546.914673,591.422058 
	C551.789673,589.951111 552.907532,586.397156 552.833069,581.735962 
	C552.641541,569.740540 552.706238,557.740845 552.692322,545.742859 
	C552.686768,540.940796 552.578552,536.268494 546.692566,534.582153 
	C545.748962,534.311829 545.224304,533.272095 545.418274,532.002319 
	C545.697754,531.739807 546.044922,531.124939 546.404785,531.117432 
	C558.034973,530.874084 569.757996,529.509583 581.242798,532.022156 
	C593.150574,534.627380 600.314209,543.052612 595.380066,558.947388 
z"/>
<path fill="#000000" opacity="1.000000" stroke="none" 
	d="
M877.741089,558.113892 
	C878.424133,560.976257 877.304626,562.389832 874.924438,562.728516 
	C872.426392,563.083923 871.175598,564.213745 870.966248,566.898499 
	C870.098206,578.029480 860.490540,586.240479 849.404602,585.140259 
	C848.123962,585.013184 846.737549,585.050537 845.750427,586.179932 
	C845.754700,589.011780 848.007324,588.914551 849.625427,589.142456 
	C855.057861,589.907898 860.544495,590.298828 865.968079,591.114441 
	C876.092896,592.637085 879.212585,598.919983 874.429321,607.822388 
	C867.762146,620.231018 853.997864,625.511108 840.751526,620.741638 
	C832.221924,617.670410 830.295044,608.960083 836.709351,602.623535 
	C837.993225,601.355164 839.634460,600.373657 840.303284,598.571411 
	C834.903442,590.757324 834.903442,590.757324 841.184204,582.046448 
	C840.045593,580.379517 838.812439,578.641785 837.648987,576.858582 
	C833.501831,570.502502 834.354431,563.949402 839.992188,558.892700 
	C843.467346,555.775757 847.656738,553.867004 852.210938,553.773682 
	C860.848755,553.596741 869.088562,556.552307 877.741089,558.113892 
M858.287720,616.099182 
	C860.052429,615.540466 861.615173,614.653625 862.930054,613.330017 
	C867.772400,608.455688 866.407043,603.061646 859.813965,601.413757 
	C857.262146,600.776001 854.619568,600.495361 852.013550,600.082275 
	C847.696411,599.398071 843.959534,601.546814 842.652222,605.438477 
	C841.322815,609.395752 842.973572,613.408447 846.887390,615.492859 
	C850.288574,617.304199 853.899475,617.122925 858.287720,616.099182 
M854.189697,579.783997 
	C860.029236,576.732849 861.971375,564.369202 857.267517,559.924561 
	C855.217529,557.987610 852.644287,557.615356 850.423096,559.185791 
	C846.626465,561.870056 845.766968,566.113464 846.534119,570.303101 
	C847.276123,574.354980 847.695007,579.180420 854.189697,579.783997 
z"/>
<path fill="#000000" opacity="1.000000" stroke="none" 
	d="
M192.774628,545.687500 
	C191.515457,539.846375 188.302078,536.347046 182.758163,535.459351 
	C179.186295,534.887451 176.341019,535.919800 176.332016,540.264893 
	C176.301682,554.911133 176.282776,569.557678 176.365265,584.203552 
	C176.386475,587.969666 178.336548,590.427307 182.160049,591.264771 
	C183.297607,591.513916 184.462524,591.986023 184.540222,593.438721 
	C184.608627,594.717468 183.693008,595.241028 182.637482,595.245605 
	C173.401505,595.285461 164.165268,595.268616 155.074966,595.268616 
	C154.252960,591.551270 156.625198,591.248535 158.372406,590.588074 
	C161.434021,589.430603 162.818405,587.190491 162.813065,584.065979 
	C162.789154,570.084717 162.739990,556.103455 162.636688,542.122559 
	C162.612946,538.910339 161.585251,536.219116 158.065796,535.224609 
	C156.748718,534.852356 155.372772,534.304504 155.580658,532.610107 
	C155.802139,530.804932 157.389801,530.895935 158.691086,530.892212 
	C167.845795,530.865967 177.007965,530.666748 186.152496,530.974976 
	C191.017883,531.138977 195.581726,533.029663 199.641754,535.782166 
	C206.347519,540.328430 207.460114,547.126953 206.226288,554.359985 
	C204.921921,562.006470 200.930405,567.958801 193.250992,570.695374 
	C189.446350,572.051208 185.492691,572.595520 181.459915,571.900574 
	C180.280151,571.697266 179.104095,571.214966 179.220596,569.716919 
	C179.310593,568.559631 180.258469,568.052490 181.300873,567.921631 
	C184.363373,567.537292 187.758636,568.210693 189.862579,564.989807 
	C192.432251,561.055969 193.123444,556.691589 192.943848,552.102966 
	C192.865738,550.107605 192.860779,548.109375 192.774628,545.687500 
z"/>
<path fill="#000000" opacity="1.000000" stroke="none" 
	d="
M446.374268,529.331726 
	C455.241241,525.921692 455.289398,525.922424 455.141632,535.283936 
	C454.928802,548.765564 454.348877,562.249695 454.525574,575.724915 
	C454.593903,580.937805 452.412537,587.941101 460.966492,589.100220 
	C460.641541,591.580017 459.111603,592.013184 457.635895,592.119690 
	C454.411316,592.352295 451.502869,593.631470 448.528290,594.651550 
	C445.176178,595.800964 442.417847,596.216614 442.582001,591.151855 
	C432.104492,598.449951 420.149170,596.900452 414.064301,582.978394 
	C408.263123,569.705261 418.638428,554.158630 433.146729,553.589722 
	C436.098053,553.473938 439.057800,553.572876 442.445709,553.572876 
	C443.100769,548.937439 442.821167,544.144531 442.610687,539.370361 
	C442.570679,538.463318 442.007507,537.446899 441.400391,536.718872 
	C437.545746,532.096252 437.521271,532.125061 443.668793,530.356384 
	C444.466736,530.126770 445.232117,529.783997 446.374268,529.331726 
M435.179810,558.421692 
	C428.698822,558.878540 425.478882,562.979065 425.148987,571.195984 
	C424.787018,580.210693 428.564941,586.903625 434.502472,587.766235 
	C439.580597,588.504028 442.699524,585.863831 442.786102,580.658325 
	C442.852264,576.682373 442.720612,572.702026 442.838318,568.728394 
	C442.990082,563.604675 440.704071,560.231628 435.179810,558.421692 
z"/>
<path fill="#000000" opacity="1.000000" stroke="none" 
	d="
M786.868896,581.872314 
	C786.865234,576.566101 786.854187,571.739746 786.858643,566.913452 
	C786.860718,564.724792 786.843628,562.687317 784.634399,561.221924 
	C782.111328,559.548401 782.950500,557.861755 785.273438,556.813416 
	C788.758972,555.240356 792.277161,553.709473 795.875366,552.423584 
	C800.883545,550.633911 798.836975,555.228271 799.875977,557.155090 
	C802.171997,558.047363 803.483826,555.985718 805.143433,555.206238 
	C815.393799,550.391602 825.265747,555.290344 825.403503,566.458374 
	C825.458862,570.944763 825.817444,575.426941 826.011169,579.912170 
	C826.229675,584.969299 824.425903,590.618042 830.954834,594.070740 
	C823.225037,595.799316 816.242981,595.658386 807.961609,594.625977 
	C817.558350,587.001648 812.702148,577.525696 813.496094,569.118469 
	C813.988525,563.903992 810.702026,561.134094 806.001770,561.296692 
	C801.160767,561.464111 799.315125,563.565186 799.229736,569.062805 
	C799.196106,571.225769 798.988647,573.421997 799.275391,575.547119 
	C800.127563,581.864380 795.902832,589.464966 805.136658,593.716370 
	C804.717163,594.197754 804.297607,594.679199 803.878113,595.160583 
	C797.227539,595.160583 790.568054,595.354065 783.931702,595.046631 
	C781.852112,594.950256 781.851501,592.490051 783.356689,591.803650 
	C787.922729,589.721619 786.650085,585.835022 786.868896,581.872314 
z"/>
<path fill="#000000" opacity="1.000000" stroke="none" 
	d="
M687.001343,590.840332 
	C688.416199,591.745544 689.991882,592.171814 689.579102,593.896973 
	C689.238098,595.321777 687.859192,595.305969 686.704102,595.312805 
	C681.543030,595.343506 676.381592,595.340698 671.220459,595.316284 
	C670.013855,595.310608 668.803955,595.073975 668.549133,593.625244 
	C668.342041,592.447449 669.150024,591.762390 670.140320,591.403687 
	C673.294678,590.260986 673.610718,587.576416 673.574890,584.862671 
	C673.491394,578.541382 673.289307,572.220764 673.042908,565.903442 
	C672.999268,564.783997 672.880737,563.230774 672.166931,562.643677 
	C666.697998,558.145630 670.802124,556.702209 674.502319,555.697571 
	C677.959595,554.758911 680.675842,551.860352 684.230591,551.828308 
	C686.083740,553.485352 684.739380,555.725281 686.183899,557.391663 
	C688.749329,557.735718 690.576233,555.649048 692.799133,554.778992 
	C702.276917,551.069275 709.945496,555.234924 711.610535,565.267517 
	C712.597229,571.212769 712.043945,577.232056 712.088501,583.215210 
	C712.116333,586.950806 711.819824,590.588562 716.167297,592.350952 
	C716.550842,592.506470 716.611816,593.457764 716.818176,594.027100 
	C713.141968,595.655640 700.927124,595.917114 695.780945,594.573364 
	C695.698303,594.259216 695.445496,593.779358 695.565552,593.652588 
	C703.453369,585.320557 699.081299,575.223938 699.283203,565.891785 
	C699.357971,562.435242 696.027161,560.654236 692.278625,561.341431 
	C688.746460,561.988892 685.279846,562.747253 685.328247,567.531067 
	C685.392212,573.857483 685.342651,580.184998 685.376526,586.511841 
	C685.384460,587.995544 685.291504,589.554749 687.001343,590.840332 
z"/>
<path fill="#000000" opacity="1.000000" stroke="none" 
	d="
M587.340210,682.460693 
	C590.147217,685.189087 587.349915,685.659729 585.976990,686.059570 
	C581.440002,687.380859 578.311279,690.582031 574.935852,693.551025 
	C572.519470,695.676392 571.871704,697.432129 574.329407,700.160339 
	C579.608887,706.021057 583.052246,713.648315 590.899719,717.010986 
	C591.384277,717.218689 591.606079,718.039612 591.855835,718.428345 
	C591.335327,720.477844 589.839905,720.272705 588.569519,720.284302 
	C583.740601,720.328491 578.910583,720.332031 574.081848,720.275757 
	C572.257690,720.254578 569.960571,719.231995 571.492737,717.482727 
	C574.428833,714.130615 571.800537,712.394592 570.317322,710.237244 
	C568.829529,708.073242 567.151733,706.039917 565.004150,704.109314 
	C564.450439,708.351013 562.776917,712.616394 566.516357,716.302185 
	C567.758789,717.526733 568.476807,719.557373 566.575134,719.808655 
	C560.995239,720.545898 555.284973,720.975342 547.997864,719.025574 
	C555.219299,715.511902 553.709534,710.247314 553.737732,705.497559 
	C553.794128,696.005737 553.770264,686.513123 553.719116,677.021179 
	C553.693054,672.179504 554.840637,666.987793 548.736023,663.502197 
	C553.480835,661.444275 557.012451,659.692322 560.699707,658.376648 
	C564.243896,657.111938 564.509644,659.584351 564.476990,662.212891 
	C564.359070,671.703247 564.243225,681.194092 564.230591,690.684875 
	C564.227783,692.767700 563.688843,694.980042 565.106506,697.238770 
	C569.231628,694.972290 571.580566,691.190063 574.191895,687.967957 
	C574.380371,686.088806 571.947571,685.556274 572.890869,683.038391 
	C577.194763,681.187500 582.244385,683.370056 587.340210,682.460693 
z"/>
<path fill="#000000" opacity="1.000000" stroke="none" 
	d="
M501.886902,545.890869 
	C504.846649,544.892395 506.938995,543.427917 508.200317,540.846924 
	C509.068512,539.070435 511.175690,538.053406 512.100586,539.875427 
	C515.194397,545.970337 520.970764,546.042969 526.922485,546.660706 
	C526.204651,550.204407 524.791748,553.328979 525.142822,556.240906 
	C525.893494,562.467041 521.819763,565.248230 518.330750,569.173950 
	C513.887451,574.173462 511.712372,580.404480 516.476929,586.927734 
	C518.335449,589.472290 517.817993,592.042419 515.456970,594.027039 
	C512.722717,596.325256 509.514709,596.225708 506.574036,594.690430 
	C503.882019,593.284973 502.655365,590.352661 504.282166,587.878540 
	C511.165833,577.409302 505.000214,570.972229 497.649536,564.759460 
	C496.739471,563.990295 495.658112,563.200562 495.972076,561.918518 
	C497.235870,556.758057 495.101074,552.200989 493.336792,547.449036 
	C495.887238,545.146606 498.985382,546.988159 501.886902,545.890869 
z"/>
<path fill="#000000" opacity="1.000000" stroke="none" 
	d="
M387.786804,595.349792 
	C376.059265,595.317688 368.304047,590.482910 365.320251,581.631104 
	C361.142365,569.237000 371.350525,554.595459 384.816223,553.668091 
	C396.952454,552.832275 407.005646,560.499878 408.083496,571.414001 
	C409.262085,583.348328 401.042023,593.258545 387.786804,595.349792 
M393.197205,564.479736 
	C391.357117,560.933899 389.122833,558.013977 384.494598,558.358704 
	C381.226776,558.602051 379.123199,560.487610 378.379883,563.359497 
	C376.288635,571.439331 376.255524,579.410583 380.996643,586.774963 
	C382.751892,589.501343 385.120972,591.133972 388.511108,590.382629 
	C391.773560,589.659546 393.869751,587.340942 394.362976,584.269592 
	C395.386292,577.897705 396.017883,571.442444 393.197205,564.479736 
z"/>
<path fill="#000000" opacity="1.000000" stroke="none" 
	d="
M636.839233,593.018005 
	C632.488708,596.289185 628.300171,596.314636 624.769409,592.825806 
	C622.498352,590.581665 621.111206,591.110413 618.851379,592.579712 
	C613.158020,596.281494 608.757935,596.270264 605.148621,592.990417 
	C599.843933,588.169800 600.356018,582.094971 606.585693,578.612427 
	C609.619568,576.916443 613.017212,575.884949 616.154663,574.356689 
	C619.685242,572.636841 621.593140,563.901367 619.245300,560.787109 
	C617.694336,558.729736 613.798523,559.317810 612.520142,561.895691 
	C612.091797,562.759399 612.250977,563.912659 611.828918,564.781677 
	C610.450073,567.620850 607.760559,568.526794 604.918457,568.972778 
	C603.712708,569.162048 602.372314,568.648560 602.112549,567.382446 
	C601.567932,564.727417 603.506531,563.086609 605.110596,561.426575 
	C609.070068,557.329041 614.165405,555.118713 619.506958,553.793701 
	C625.926697,552.201416 631.664246,556.133423 632.614929,562.720642 
	C633.180298,566.637817 632.844971,570.688110 632.864136,574.678772 
	C632.868896,575.672791 632.639771,576.665527 632.583740,577.662598 
	C632.133484,585.675903 632.751648,586.663635 639.680664,589.028076 
	C640.210205,591.191711 638.384094,591.791016 636.839233,593.018005 
M619.917236,581.839966 
	C619.868713,579.475281 619.442444,577.667297 616.430664,579.265259 
	C613.698792,580.714844 612.593262,582.901672 613.431763,585.893738 
	C613.862488,587.430664 614.806213,588.686340 616.649231,588.363281 
	C619.960571,587.782898 620.144531,585.288330 619.917236,581.839966 
z"/>
<path fill="#000000" opacity="1.000000" stroke="none" 
	d="
M264.823486,593.116089 
	C260.449005,595.057373 256.481598,596.729675 252.348404,593.370300 
	C246.840836,588.893921 246.862442,582.688110 252.889893,578.975403 
	C256.244995,576.908875 260.181122,575.809387 263.754547,574.067200 
	C267.799438,572.095215 269.206787,564.126648 266.250793,560.759094 
	C265.130859,559.483215 263.674103,559.204895 262.162811,559.568481 
	C260.257721,560.026794 258.820251,561.166687 258.700348,563.290833 
	C258.427460,568.126221 254.481140,568.336853 251.285477,568.651733 
	C248.902008,568.886658 247.790100,567.009766 249.160492,564.536621 
	C252.300522,558.869995 265.396545,552.449768 271.609070,553.536255 
	C275.300751,554.181824 279.012299,558.649109 279.144043,562.993591 
	C279.290100,567.810486 279.176056,572.635803 279.151581,577.457336 
	C279.107117,586.220276 279.099823,586.220215 286.193848,589.144226 
	C283.247375,595.462402 277.092346,597.359741 271.781311,593.122498 
	C269.264893,591.114746 267.418121,591.339355 264.823486,593.116089 
M260.354675,581.739563 
	C258.862457,584.153992 259.652954,586.291931 261.480194,587.978943 
	C262.805664,589.202698 264.563049,588.519592 265.482330,587.367920 
	C267.638550,584.666504 267.223145,581.654907 266.114258,578.708069 
	C263.478210,578.222473 262.140350,579.727112 260.354675,581.739563 
z"/>
<path fill="#000000" opacity="1.000000" stroke="none" 
	d="
M739.364014,561.811279 
	C739.197937,568.533386 738.914368,574.852173 739.167908,581.149292 
	C739.408875,587.134399 741.708740,588.680969 747.625061,587.607666 
	C749.190369,587.323730 751.195374,586.146240 752.070251,588.149048 
	C753.092712,590.489685 750.606445,591.211182 749.177307,592.044250 
	C746.033203,593.877136 742.846069,595.551147 738.933044,595.405823 
	C733.059753,595.187866 728.830566,591.971863 727.570801,586.260803 
	C726.048340,579.358826 727.023254,572.349609 726.710510,565.395203 
	C726.600037,562.936707 726.937317,560.506714 723.974609,559.051270 
	C721.932800,558.048157 722.080750,555.974243 723.722595,554.492310 
	C727.171143,551.379761 730.657471,548.292053 734.318665,545.438416 
	C736.458496,543.770630 739.017273,544.104126 738.851440,547.195068 
	C738.507019,553.614136 742.607300,553.539673 746.927185,553.567993 
	C747.757141,553.573425 748.589539,553.460327 749.417358,553.492554 
	C751.587891,553.577026 752.189026,554.949219 752.116943,556.864807 
	C752.045654,558.759583 750.952087,559.305176 749.204102,559.498657 
	C745.920715,559.861938 742.145874,557.873108 739.364014,561.811279 
z"/>
<path fill="#000000" opacity="1.000000" stroke="none" 
	d="
M502.866699,718.235229 
	C489.087860,723.332581 477.191711,717.310547 475.544495,704.737610 
	C474.291687,695.175232 480.573212,686.009338 490.262299,683.261597 
	C499.002136,680.783081 507.951752,684.926208 511.844360,693.252808 
	C515.764709,701.638733 512.679138,711.708862 504.481873,717.272827 
	C504.069336,717.552795 503.643311,717.813049 502.866699,718.235229 
M498.273376,714.975281 
	C503.820801,709.092590 503.906891,694.910583 498.429993,689.175598 
	C494.429962,684.987061 489.049561,686.289978 487.355316,691.972656 
	C485.312805,698.823364 486.212891,705.439087 489.451996,711.753845 
	C491.180969,715.124573 493.757843,716.735657 498.273376,714.975281 
z"/>
<path fill="#000000" opacity="1.000000" stroke="none" 
	d="
M215.446533,589.777283 
	C217.356735,581.091919 216.510651,572.660522 215.803711,564.230042 
	C215.789917,564.065613 215.711182,563.904175 215.711227,563.741333 
	C215.711777,561.411682 210.646408,559.867371 213.810013,557.584595 
	C217.481689,554.935303 222.000061,552.644836 226.392838,552.079956 
	C229.616241,551.665466 228.407318,556.147583 229.032501,558.797668 
	C232.634521,556.973022 235.183350,553.123352 239.833954,553.525208 
	C241.922775,553.705750 243.947388,553.743469 244.866608,555.926208 
	C246.028458,558.684998 245.088959,561.152588 243.255692,563.298157 
	C241.750137,565.060242 239.849976,565.064819 237.792587,564.331238 
	C231.058334,561.929932 228.357864,563.788635 228.097504,570.970093 
	C228.055344,572.132690 228.085022,573.298035 228.089310,574.462097 
	C228.103424,578.286743 228.314331,582.122925 228.088364,585.933167 
	C227.808624,590.649902 233.024918,590.745667 235.266968,594.563110 
	C227.114609,595.959412 219.730667,595.393799 212.474335,595.015320 
	C211.284897,591.700317 213.916031,591.304749 215.446533,589.777283 
z"/>
<path fill="#000000" opacity="1.000000" stroke="none" 
	d="
M643.917419,595.283081 
	C640.949951,594.263367 641.345886,592.649048 643.280212,591.819458 
	C646.856079,590.285889 646.832764,587.450378 646.807678,584.379395 
	C646.762817,578.883789 646.800964,573.387573 646.798340,567.891602 
	C646.797241,565.545715 646.779114,563.414185 644.282776,561.868591 
	C641.934448,560.414551 642.364990,558.579834 644.905334,557.454834 
	C648.557068,555.837708 652.173096,554.117310 655.909119,552.721069 
	C658.635315,551.702209 660.012512,552.755249 659.649414,555.877747 
	C658.568604,565.171936 659.402100,574.509460 659.134338,583.823364 
	C659.034973,587.279175 659.061768,590.554810 663.235413,591.872070 
	C664.184509,592.171570 664.760986,593.134460 664.118164,595.325500 
	C657.739990,595.325500 651.029846,595.325500 643.917419,595.283081 
z"/>
<path fill="#000000" opacity="1.000000" stroke="none" 
	d="
M772.440857,580.015930 
	C772.666321,585.480652 772.122559,590.814270 777.806946,593.113464 
	C777.286987,595.285339 776.048279,595.322998 774.896240,595.330200 
	C769.570312,595.363464 764.243958,595.371094 758.918213,595.327148 
	C757.640015,595.316650 756.037048,595.545898 755.678955,593.768066 
	C755.380005,592.283813 756.637756,591.833984 757.728699,591.375610 
	C760.071655,590.391052 760.724487,588.474426 760.705322,586.122559 
	C760.656616,580.131409 760.698914,574.139221 760.607422,568.148987 
	C760.571350,565.786682 760.080627,563.634705 757.895203,562.044495 
	C755.589111,560.366455 755.262939,558.543091 758.551147,557.489929 
	C762.217346,556.315674 765.608704,554.568237 768.983765,552.744812 
	C772.132996,551.043396 773.913574,551.994324 773.355042,555.691833 
	C772.155579,563.631287 772.968262,571.630737 772.440857,580.015930 
z"/>
<path fill="#000000" opacity="1.000000" stroke="none" 
	d="
M521.610107,714.126221 
	C521.710693,707.562866 521.749390,701.412537 521.742859,695.262268 
	C521.741272,693.788635 521.970642,692.165161 520.649475,691.074707 
	C517.093750,688.140137 518.229431,686.614319 522.084961,685.506958 
	C523.977478,684.963379 525.700378,683.849609 527.530762,683.065674 
	C531.884705,681.200867 532.863159,681.893311 532.974548,687.160645 
	C535.514221,686.822144 536.495117,684.208435 538.609375,683.446838 
	C541.183899,682.519348 543.845764,681.805847 546.153870,683.724060 
	C547.895630,685.171692 547.631531,687.391968 546.932373,689.301758 
	C545.837158,692.293701 543.710754,693.188477 540.573303,692.212952 
	C534.860840,690.436890 533.631531,691.346313 532.711182,697.195496 
	C531.897156,702.368652 533.139526,707.471558 533.024597,712.614746 
	C532.974121,714.874634 534.686218,715.571350 536.323975,716.495422 
	C538.182129,717.543762 538.717224,719.687500 536.300354,719.944702 
	C530.326782,720.580505 524.247864,720.794983 518.438171,719.769775 
	C517.763306,716.387634 521.178650,716.548157 521.610107,714.126221 
z"/>
<path fill="#000000" opacity="1.000000" stroke="none" 
	d="
M621.881714,715.353821 
	C624.533813,716.090088 626.723572,715.924377 627.646790,713.406860 
	C628.597778,710.813660 627.894836,708.466125 625.479675,706.858459 
	C622.987000,705.199280 620.311523,703.774353 617.989380,701.907043 
	C611.197083,696.445190 612.565918,687.264893 620.542114,683.761414 
	C623.560974,682.435425 626.720276,682.270508 629.845154,682.748169 
	C635.263428,683.576294 637.168518,687.314392 635.306763,693.025696 
	C632.636353,693.429260 632.189026,691.140259 631.107666,689.578003 
	C629.710022,687.558716 627.920227,686.090210 625.269897,686.586487 
	C623.672791,686.885559 622.586121,688.001038 622.315552,689.610229 
	C621.851990,692.366760 623.584656,693.875305 625.677673,695.173645 
	C627.373352,696.225647 628.988220,697.407288 630.652344,698.511230 
	C636.866821,702.633789 638.590332,706.651062 636.522949,712.227478 
	C634.499756,717.685059 628.786377,720.934021 622.473022,720.217163 
	C615.045776,719.373779 613.415405,717.969666 612.298340,711.703918 
	C612.028015,710.187439 611.465271,708.556946 613.190857,707.747925 
	C615.356079,706.732788 616.051270,708.795349 616.938721,710.078857 
	C618.261047,711.991394 619.295654,714.129700 621.881714,715.353821 
z"/>
<path fill="#000000" opacity="1.000000" stroke="none" 
	d="
M718.156982,504.803284 
	C717.839539,501.413544 719.379028,500.080231 722.190796,500.015900 
	C724.664612,499.959290 727.140808,500.004089 729.619690,499.351379 
	C727.728577,499.351379 725.828308,499.232391 723.948303,499.376740 
	C720.288147,499.657715 717.890747,498.988098 717.936951,494.410583 
	C717.979492,490.204285 719.768127,488.740997 723.695618,488.973572 
	C726.015198,489.110962 728.350281,488.962280 730.677185,489.004700 
	C737.527039,489.129517 738.534485,490.146637 737.641357,497.019012 
	C737.364197,499.151520 737.188782,501.045898 737.709595,503.205536 
	C738.417847,506.142822 737.447571,508.351227 733.777710,508.620544 
	C729.784302,508.913605 725.828735,509.086273 721.842896,508.550629 
	C719.760498,508.270782 718.421448,507.408936 718.156982,504.803284 
z"/>
<path fill="#000000" opacity="1.000000" stroke="none" 
	d="
M384.341858,478.044434 
	C385.941132,477.805939 387.097168,477.691010 388.253693,477.685822 
	C399.928619,477.633301 401.554016,479.616730 399.941040,491.455170 
	C399.569427,494.182556 398.100555,495.436401 395.640717,495.069855 
	C391.360504,494.432037 385.255554,497.866547 383.213928,492.619110 
	C381.595367,488.459106 381.403931,482.911438 384.341858,478.044434 
z"/>
<path fill="#000000" opacity="1.000000" stroke="none" 
	d="
M609.934937,418.140137 
	C613.841675,413.570679 617.477722,409.248871 621.250244,405.049805 
	C624.082092,401.897797 630.124268,402.613007 632.304626,406.214630 
	C633.466431,408.133820 632.258362,409.283661 631.019714,410.479767 
	C626.714172,414.637177 622.562500,418.933014 618.888245,423.677399 
	C617.562073,425.389679 615.735107,427.668030 613.619812,425.821014 
	C611.592041,424.050415 607.534851,422.679718 609.934937,418.140137 
z"/>
<path fill="#000000" opacity="1.000000" stroke="none" 
	d="
M333.202057,606.937988 
	C336.009247,610.444092 338.620270,613.661743 341.231323,616.879395 
	C341.673248,616.867065 342.115173,616.854675 342.557098,616.842285 
	C342.557098,613.862427 342.584473,610.882263 342.545868,607.902893 
	C342.525787,606.355835 342.374969,604.627930 344.511230,604.594360 
	C346.946808,604.556152 346.787628,606.435913 346.740295,608.163696 
	C346.613220,612.806213 346.549530,617.450500 346.427032,622.093140 
	C346.389618,623.510803 346.983032,625.307312 345.015137,625.892456 
	C343.324463,626.395081 342.164062,625.177979 341.222504,624.024597 
	C339.017883,621.324219 336.938782,618.521606 334.771942,615.789734 
	C334.281586,615.171570 333.776245,614.442810 332.067169,614.697327 
	C332.067169,617.331360 332.086029,620.089844 332.060028,622.847900 
	C332.044678,624.476440 331.606995,625.973267 329.640198,625.933716 
	C327.742981,625.895630 327.173676,624.385864 327.147736,622.797729 
	C327.069000,617.979980 327.069183,613.160339 327.096161,608.341797 
	C327.103760,606.982300 327.405670,605.625000 328.822296,605.000122 
	C330.719421,604.163269 331.988556,605.139526 333.202057,606.937988 
z"/>
<path fill="#000000" opacity="1.000000" stroke="none" 
	d="
M395.655823,459.770935 
	C398.603180,459.756653 399.716125,461.155518 399.818390,463.478546 
	C399.891113,465.130432 399.737640,466.794708 399.851624,468.441895 
	C400.183441,473.236053 398.284668,475.663940 393.232513,474.929047 
	C392.908325,474.881897 392.570862,474.924561 392.239594,474.927307 
	C382.523193,475.007751 380.236603,472.006287 382.542480,462.393768 
	C382.987000,460.540710 384.160767,460.022461 385.760223,459.969452 
	C388.905090,459.865143 392.052124,459.824799 395.655823,459.770935 
z"/>
<path fill="#000000" opacity="1.000000" stroke="none" 
	d="
M426.080444,605.708618 
	C429.010376,604.105835 430.448517,604.924377 430.458038,607.961609 
	C430.473145,612.773315 430.469513,617.585327 430.428925,622.396790 
	C430.416229,623.905090 430.354675,625.511353 428.462311,625.966492 
	C426.748596,626.378662 425.683807,625.331482 424.701965,624.114746 
	C421.942902,620.695679 419.152588,617.301819 415.281708,614.156616 
	C415.281708,616.564941 415.375397,618.978149 415.249725,621.379944 
	C415.161346,623.068420 415.841675,625.699219 413.285614,625.744690 
	C410.399719,625.796082 410.990540,623.012390 410.941223,621.158569 
	C410.830902,617.012512 410.882416,612.861572 410.901947,608.712830 
	C410.908936,607.227051 410.790436,605.582520 412.642731,605.006775 
	C414.307556,604.489380 415.508575,605.364990 416.507629,606.602356 
	C419.202301,609.939758 421.897461,613.276733 424.953491,617.060974 
	C426.385529,613.102478 425.124420,609.462097 426.080444,605.708618 
z"/>
<path fill="#000000" opacity="1.000000" stroke="none" 
	d="
M748.564819,625.636108 
	C747.338867,624.276367 746.474243,623.073853 745.521667,621.945618 
	C743.121521,619.103088 740.238159,619.598206 738.994141,623.162109 
	C738.474304,624.651428 738.179138,626.234070 736.179138,625.842346 
	C734.237061,625.461975 734.373596,623.810547 734.413879,622.274414 
	C734.535400,617.638184 734.670715,613.000793 734.682495,608.363647 
	C734.688843,605.855957 735.796326,604.679810 738.280701,604.760620 
	C740.926941,604.846680 743.624146,604.634033 746.209106,605.076965 
	C751.979675,606.065735 754.406921,611.427063 751.150513,616.297424 
	C749.730957,618.420593 749.449097,619.821716 750.873413,621.999207 
	C752.089905,623.858948 753.082397,626.401917 748.564819,625.636108 
M746.705872,614.323669 
	C748.192810,612.624878 748.150940,610.838501 746.274719,609.696899 
	C744.370117,608.537903 742.055908,608.561829 740.141846,609.761780 
	C738.713623,610.657227 738.676208,612.528687 739.307312,613.824402 
	C740.991699,617.282715 743.640076,615.673218 746.705872,614.323669 
z"/>
<path fill="#000000" opacity="1.000000" stroke="none" 
	d="
M406.234131,477.737000 
	C418.532806,477.908691 417.253265,476.348206 417.258362,488.502258 
	C417.259247,490.633789 418.500244,493.858185 415.556244,494.628479 
	C411.775238,495.617676 407.690552,495.945099 403.877075,494.239655 
	C403.415161,494.033081 403.016266,493.141571 403.004700,492.559235 
	C402.922180,488.406616 402.863220,484.249451 402.983063,480.099091 
	C403.027557,478.557037 404.291473,477.900909 406.234131,477.737000 
z"/>
<path fill="#000000" opacity="1.000000" stroke="none" 
	d="
M530.314453,605.716064 
	C531.632568,608.730774 529.843811,613.245117 535.500610,612.899109 
	C538.790100,612.697998 541.047302,612.158447 540.912415,608.224670 
	C540.847717,606.336121 541.211487,604.190247 543.784241,604.548218 
	C546.222839,604.887512 545.322693,607.073425 545.327332,608.617676 
	C545.340942,613.112061 545.331482,617.607117 545.265259,622.100952 
	C545.241638,623.702698 545.565308,625.808472 543.117615,625.816650 
	C541.125366,625.823303 540.910461,624.018066 540.951782,622.509155 
	C541.039062,619.317139 540.553711,617.126404 536.446167,617.033386 
	C532.274048,616.938843 530.732361,618.538025 530.858643,622.530029 
	C530.911438,624.199097 530.428833,626.083069 528.138855,625.920837 
	C525.859314,625.759399 525.841248,623.834106 525.828735,622.162048 
	C525.793884,617.501343 525.778503,612.838867 525.868591,608.179321 
	C525.922363,605.400879 527.169861,604.100098 530.314453,605.716064 
z"/>
<path fill="#000000" opacity="1.000000" stroke="none" 
	d="
M417.191040,471.699280 
	C413.636383,476.352966 408.941772,474.748962 404.844940,474.122955 
	C401.472992,473.607697 403.236023,469.992218 402.755432,467.741333 
	C402.721313,467.581604 402.746735,467.409088 402.744965,467.242523 
	C402.645447,457.923798 404.870819,456.175446 414.267395,457.950470 
	C416.540985,458.379944 417.328522,459.640137 417.307800,461.742828 
	C417.276581,464.907135 417.262604,468.071564 417.191040,471.699280 
z"/>
<path fill="#000000" opacity="1.000000" stroke="none" 
	d="
M569.336182,612.767090 
	C570.901367,612.793640 572.069397,612.766541 573.227783,612.859253 
	C574.317322,612.946472 575.179565,613.526367 575.271118,614.664917 
	C575.384827,616.077820 574.453430,616.748840 573.162842,616.958435 
	C572.673828,617.037842 572.156250,616.954712 571.672424,617.050598 
	C569.630920,617.455444 566.119873,616.094177 566.437134,619.738831 
	C566.727539,623.076294 570.094299,621.538025 572.182983,621.849731 
	C574.048340,622.128113 576.804565,621.324768 576.758423,624.248291 
	C576.716614,626.896606 574.069153,626.195435 572.411255,626.183716 
	C559.287231,626.090759 560.852478,627.748474 560.727905,614.959167 
	C560.627502,604.649536 560.670654,604.648926 570.983154,604.659851 
	C571.815491,604.660706 572.648315,604.650879 573.480103,604.673340 
	C574.836670,604.709961 576.445557,604.741760 576.635925,606.406128 
	C576.870483,608.457214 575.070618,608.639160 573.587158,608.878967 
	C571.162231,609.270752 568.574036,608.252747 566.278748,609.707153 
	C566.029358,609.865234 565.919434,610.243591 565.736023,610.533752 
	C565.826904,612.670105 567.415649,612.668579 569.336182,612.767090 
z"/>
<path fill="#000000" opacity="1.000000" stroke="none" 
	d="
M260.203735,616.300903 
	C258.181335,618.510803 255.755676,619.319031 253.341553,619.805054 
	C250.685211,620.339844 247.986481,620.262756 247.906326,624.099060 
	C247.881104,625.305969 246.619232,626.001709 245.285080,625.836243 
	C243.884567,625.662659 243.248215,624.569885 243.236954,623.376038 
	C243.186722,618.060364 243.242828,612.743042 243.334915,607.427612 
	C243.345444,606.820312 243.688919,606.099060 244.107437,605.639832 
	C245.662613,603.933594 255.275848,604.338013 258.013550,606.410767 
	C261.277496,608.881958 262.571350,612.062134 260.203735,616.300903 
M253.007446,609.110535 
	C250.933395,609.152771 248.439728,608.548096 248.255600,611.804260 
	C248.163452,613.433960 248.074509,615.242188 250.322464,615.646606 
	C252.567154,616.050415 254.839813,615.682800 256.037994,613.727356 
	C257.412537,611.484131 255.778091,610.123718 253.007446,609.110535 
z"/>
<path fill="#000000" opacity="1.000000" stroke="none" 
	d="
M453.897705,620.967407 
	C457.492462,621.697876 459.901978,621.155457 460.366150,617.267151 
	C460.514191,616.026733 461.311890,614.997437 462.733551,615.265808 
	C464.172302,615.537415 464.190582,616.854675 464.304474,618.037292 
	C464.668793,621.819702 463.513855,624.410156 459.463470,625.512878 
	C454.140167,626.962158 448.206604,625.165771 445.367981,620.693665 
	C442.836487,616.705322 443.243530,612.804321 446.122284,609.120605 
	C449.302704,605.050903 455.143677,603.508240 460.133728,605.410095 
	C463.129456,606.551819 463.229095,606.778320 462.313110,610.980713 
	C457.633240,609.568176 452.144043,606.272400 449.425781,613.379944 
	C448.112854,616.812988 449.112701,620.057739 453.897705,620.967407 
z"/>
<path fill="#000000" opacity="1.000000" stroke="none" 
	d="
M767.620728,609.661377 
	C767.222229,606.185913 768.174255,604.458740 771.629883,604.682739 
	C774.274719,604.854248 776.941528,604.656738 779.597107,604.703491 
	C781.031128,604.728638 783.012451,604.397034 783.090027,606.485779 
	C783.174805,608.769409 781.108398,608.784973 779.459839,608.900940 
	C777.971497,609.005615 776.468933,608.905273 774.979919,609.004639 
	C773.681030,609.091370 772.026306,609.050110 771.956665,610.838989 
	C771.882996,612.731079 773.542542,612.630310 774.853210,612.702515 
	C776.343811,612.784668 777.842590,612.744263 779.329407,612.862488 
	C780.569824,612.961121 781.684875,613.458984 781.640381,614.925293 
	C781.596924,616.356262 780.471252,616.847961 779.244507,616.959839 
	C777.593628,617.110291 775.926697,617.086670 774.276123,617.239563 
	C772.709412,617.384705 771.892883,618.432617 771.849426,619.912354 
	C771.793030,621.829529 773.308899,621.856873 774.649536,621.891113 
	C776.640320,621.942078 778.634460,621.863647 780.624756,621.922913 
	C782.019470,621.964355 783.397034,622.313904 783.515808,624.010437 
	C783.644165,625.843201 782.209106,626.145996 780.831909,626.165955 
	C777.346191,626.216431 773.858521,626.203918 770.372681,626.148010 
	C768.026550,626.110352 767.331909,624.802612 767.439087,622.540100 
	C767.635254,618.397644 767.576233,614.243042 767.620728,609.661377 
z"/>
<path fill="#000000" opacity="1.000000" stroke="none" 
	d="
M291.984650,618.068604 
	C292.669220,620.782776 295.188782,622.425903 294.669952,625.211914 
	C292.790009,626.741211 291.288757,626.037537 289.911926,624.542786 
	C285.437042,619.684692 281.231598,619.683960 276.697327,624.621948 
	C275.708649,625.698669 274.651062,626.527588 273.284973,625.676208 
	C272.020935,624.888367 272.548157,623.660278 273.063110,622.577026 
	C275.550629,617.344604 277.892883,612.036255 280.574646,606.905334 
	C282.446442,603.324097 284.684875,603.401062 286.622681,606.998047 
	C288.506409,610.494690 290.116364,614.138855 291.984650,618.068604 
M282.682312,611.874695 
	C282.198181,613.351929 280.566803,614.463684 281.205597,616.344788 
	C282.696564,616.978394 284.073792,617.138306 285.774658,615.489258 
	C284.660583,614.367554 286.044037,611.821472 282.682312,611.874695 
z"/>
<path fill="#000000" opacity="1.000000" stroke="none" 
	d="
M714.971558,614.683533 
	C715.051636,611.906616 715.026733,609.572327 715.205322,607.253723 
	C715.317322,605.799194 716.080872,604.685730 717.785034,604.884216 
	C719.563721,605.091370 719.663513,606.328186 719.576965,607.817688 
	C719.403503,610.804443 719.386597,613.800354 719.308044,616.792542 
	C719.157043,622.549988 716.631226,625.392334 711.029358,626.105469 
	C706.016785,626.743591 701.068542,623.581360 700.246277,618.588013 
	C699.658447,615.017761 699.917969,611.296814 699.931580,607.643616 
	C699.937927,605.932251 700.851501,604.786011 702.739441,604.899597 
	C704.419067,605.000549 704.963440,606.213806 705.019348,607.652344 
	C705.109863,609.979370 705.095398,612.310547 705.117615,614.640076 
	C705.148499,617.868591 704.954529,621.373840 709.434204,621.722412 
	C714.129395,622.087708 714.718445,618.680786 714.971558,614.683533 
z"/>
<path fill="#000000" opacity="1.000000" stroke="none" 
	d="
M639.237549,604.922180 
	C642.313416,604.630188 642.515198,606.388306 642.474182,608.399536 
	C642.420044,611.061401 642.377808,613.724915 642.412170,616.386780 
	C642.452820,619.535889 644.116028,621.412354 647.222595,621.695251 
	C650.584839,622.001587 652.137085,619.748474 652.497437,616.896484 
	C652.870361,613.945679 652.739136,610.918152 652.663818,607.928345 
	C652.612183,605.877136 653.305237,604.646484 655.466675,604.791504 
	C657.610779,604.935425 657.465515,606.476318 657.370361,608.085693 
	C657.193726,611.073608 657.089783,614.072327 657.122925,617.064697 
	C657.178162,622.057129 654.444214,624.832581 649.931396,625.910950 
	C645.201782,627.041199 640.766296,625.528381 638.914124,621.182922 
	C636.741272,616.085083 636.511536,610.409485 639.237549,604.922180 
z"/>
<path fill="#000000" opacity="1.000000" stroke="none" 
	d="
M611.910889,625.937134 
	C609.607727,624.954895 609.816956,623.179382 609.788391,621.539673 
	C609.750610,619.374573 609.807068,617.208008 609.809448,615.042053 
	C609.821045,604.381592 611.736572,602.810242 622.296631,604.733582 
	C623.504272,604.953613 624.710754,605.122742 624.711060,606.658813 
	C624.711365,608.140564 623.501282,608.586060 622.334900,608.753601 
	C620.858215,608.965698 619.344543,608.906555 617.856750,609.060425 
	C616.659973,609.184265 615.405518,609.497314 615.475952,611.044678 
	C615.547485,612.618286 616.898804,612.526001 618.036133,612.804382 
	C620.026489,613.291382 623.579102,611.120422 623.697083,614.683716 
	C623.806396,617.987671 620.227661,616.863953 618.137451,617.110657 
	C615.778137,617.389038 615.162964,618.729858 614.942688,620.788086 
	C614.727539,622.797668 615.396179,625.372192 611.910889,625.937134 
z"/>
<path fill="#000000" opacity="1.000000" stroke="none" 
	d="
M762.411499,534.155579 
	C766.617920,531.878723 769.833984,533.094849 772.401306,536.203430 
	C774.287109,538.486816 774.228210,541.004517 772.427368,543.491333 
	C769.615662,547.374084 765.273865,548.487488 762.196228,546.005859 
	C758.481873,543.010803 758.441406,538.867676 762.411499,534.155579 
z"/>
<path fill="#000000" opacity="1.000000" stroke="none" 
	d="
M649.823486,533.483765 
	C653.592651,532.282837 656.463196,532.991943 658.499512,536.032471 
	C659.847107,538.044739 660.656128,540.233948 659.334351,542.583740 
	C657.804199,545.304138 655.878540,547.523621 652.330322,547.261963 
	C649.068665,547.021423 647.136475,544.875427 646.149780,542.158386 
	C644.851990,538.584778 646.215942,535.659607 649.823486,533.483765 
z"/>
<path fill="#000000" opacity="1.000000" stroke="none" 
	d="
M508.590454,604.692139 
	C510.474030,604.824829 512.266479,604.509705 512.370056,606.693665 
	C512.455505,608.496277 510.944397,608.808533 509.636475,608.914612 
	C506.734772,609.149963 506.227814,610.959412 506.292664,613.390442 
	C506.367737,616.204346 506.353912,619.023682 506.272430,621.837524 
	C506.221863,623.583374 506.628174,625.897705 503.928955,625.939148 
	C501.044861,625.983521 501.165985,623.592407 501.135071,621.620911 
	C501.098785,619.306396 501.169037,616.984314 501.322876,614.674194 
	C501.512604,611.825134 501.452057,609.281067 497.695190,608.870850 
	C496.286957,608.717041 495.055664,607.957214 495.418152,606.262268 
	C495.716187,604.868652 497.021729,604.744446 498.210083,604.732300 
	C501.522400,604.698425 504.835114,604.698853 508.590454,604.692139 
z"/>
<path fill="#000000" opacity="1.000000" stroke="none" 
	d="
M371.335541,611.633789 
	C371.245636,615.716614 371.223389,619.373291 371.156036,623.028992 
	C371.125183,624.702393 370.488251,626.032410 368.589966,626.040466 
	C366.629944,626.048706 366.132202,624.561340 366.063293,622.978394 
	C365.954956,620.489136 365.932953,617.992859 365.974731,615.501221 
	C366.028961,612.265564 366.315063,608.986328 361.720367,608.581238 
	C360.885864,608.507629 360.250916,607.800720 360.230927,606.846191 
	C360.205383,605.626099 361.037659,604.919495 362.068665,604.894470 
	C366.383667,604.789917 370.702698,604.787964 375.018951,604.845093 
	C376.076019,604.859131 376.892731,605.509094 376.980469,606.699829 
	C377.069794,607.912048 376.308441,608.531250 375.269379,608.791992 
	C373.701660,609.185486 371.826660,609.023499 371.335541,611.633789 
z"/>
<path fill="#000000" opacity="1.000000" stroke="none" 
	d="
M680.327148,622.690308 
	C680.158325,624.504883 679.985413,625.945312 678.163635,625.871826 
	C676.436157,625.802124 676.074707,624.384460 676.030579,623.034180 
	C675.927979,619.888977 675.929993,616.739075 675.954590,613.591492 
	C675.974915,610.986450 675.378601,609.021423 672.220764,608.884033 
	C670.862549,608.824829 669.448853,608.274353 669.509094,606.582275 
	C669.574707,604.740173 671.169617,604.761353 672.470215,604.745911 
	C676.611328,604.696594 680.753601,604.704468 684.894958,604.745117 
	C686.140747,604.757324 687.191223,605.190979 687.293335,606.691284 
	C687.357117,607.626831 686.923645,608.565491 686.075806,608.584290 
	C678.899414,608.743225 680.513123,614.014954 680.362122,618.256836 
	C680.315002,619.580872 680.348083,620.907776 680.327148,622.690308 
z"/>
<path fill="#000000" opacity="1.000000" stroke="none" 
	d="
M603.421570,673.295288 
	C601.829468,676.571228 602.176392,680.622375 597.441284,682.558777 
	C596.603210,675.928101 595.854370,669.753418 597.395447,663.720337 
	C598.040955,661.193298 600.957764,659.390808 603.826843,660.269836 
	C606.772339,661.172302 605.992737,664.048401 605.547668,666.255859 
	C605.091248,668.519165 604.201416,670.694946 603.421570,673.295288 
z"/>
<path fill="#000000" opacity="1.000000" stroke="none" 
	d="
M390.696838,615.981812 
	C390.711151,613.012695 390.706696,610.528931 390.745789,608.045837 
	C390.775391,606.165894 391.417877,604.731750 393.629272,604.905579 
	C395.720123,605.070007 395.632477,606.556641 395.596771,608.172363 
	C395.487396,613.124207 396.150177,618.072449 395.539581,623.038635 
	C395.335205,624.701294 395.121002,626.075012 393.123718,626.036804 
	C391.135498,625.998840 390.774841,624.524963 390.743988,622.924316 
	C390.702454,620.772522 390.710175,618.619690 390.696838,615.981812 
z"/>
<path fill="#000000" opacity="1.000000" stroke="none" 
	d="
M307.726013,618.867249 
	C307.730774,615.070496 307.728058,611.753418 307.743866,608.436401 
	C307.752319,606.664795 308.039825,604.930725 310.281982,604.921631 
	C312.632477,604.912048 312.624084,606.569946 312.551361,608.417236 
	C312.375488,612.885742 312.399658,617.362061 312.335358,621.835144 
	C312.310150,623.590210 312.920227,625.927795 310.131653,625.918518 
	C307.501038,625.909729 307.807037,623.628235 307.729858,621.834534 
	C307.694244,621.006775 307.725342,620.176208 307.726013,618.867249 
z"/>
<path fill="#000000" opacity="1.000000" stroke="none" 
	d="
M640.853638,431.314148 
	C639.145081,429.400818 638.828247,427.780426 641.485657,427.143585 
	C643.002502,426.780029 644.752441,427.280914 644.848022,429.094757 
	C644.977112,431.542419 643.290649,432.048706 640.853638,431.314148 
z"/>
<path fill="#000000" opacity="1.000000" stroke="none" 
	d="
M642.833374,425.019653 
	C640.173096,425.099213 638.862183,424.074127 639.834106,421.743835 
	C640.498474,420.151215 642.228760,419.774780 643.609314,420.694611 
	C645.799500,422.153900 645.076904,423.670685 642.833374,425.019653 
z"/>
<path fill="#000000" opacity="1.000000" stroke="none" 
	d="
M632.725342,422.124023 
	C633.889160,419.727722 635.401428,419.323730 637.117615,420.950500 
	C638.222290,421.997650 638.364868,423.579010 637.088013,424.390350 
	C634.984436,425.727020 633.378174,424.908142 632.725342,422.124023 
z"/>
<path fill="#000000" opacity="1.000000" stroke="none" 
	d="
M635.083618,431.656342 
	C632.505554,430.549347 632.113647,429.130798 634.128235,427.565613 
	C635.204163,426.729736 636.824219,426.299835 637.569214,427.751068 
	C638.581726,429.723114 637.714111,431.211945 635.083618,431.656342 
z"/>
</svg>